<?xml version="1.0" encoding="utf-8" standalone="no"?>
<!DOCTYPE svg PUBLIC "-//W3C//DTD SVG 1.1//EN"
  "http://www.w3.org/Graphics/SVG/1.1/DTD/svg11.dtd">
<svg xmlns:xlink="http://www.w3.org/1999/xlink" width="277.365625pt" height="211.07625pt" viewBox="0 0 277.365625 211.07625" xmlns="http://www.w3.org/2000/svg" version="1.1">
 <metadata>
  <rdf:RDF xmlns:dc="http://purl.org/dc/elements/1.1/" xmlns:cc="http://creativecommons.org/ns#" xmlns:rdf="http://www.w3.org/1999/02/22-rdf-syntax-ns#">
   <cc:Work>
    <dc:type rdf:resource="http://purl.org/dc/dcmitype/StillImage"/>
    <dc:date>2023-02-07T17:55:37.886759</dc:date>
    <dc:format>image/svg+xml</dc:format>
    <dc:creator>
     <cc:Agent>
      <dc:title>Matplotlib v3.6.2, https://matplotlib.org/</dc:title>
     </cc:Agent>
    </dc:creator>
   </cc:Work>
  </rdf:RDF>
 </metadata>
 <defs>
  <style type="text/css">*{stroke-linejoin: round; stroke-linecap: butt}</style>
 </defs>
 <g id="figure_1">
  <g id="patch_1">
   <path d="M 0 211.07625 
L 277.365625 211.07625 
L 277.365625 0 
L 0 0 
z
" style="fill: #ffffff"/>
  </g>
  <g id="axes_1">
   <g id="patch_2">
    <path d="M 46.965625 173.52 
L 270.165625 173.52 
L 270.165625 7.2 
L 46.965625 7.2 
z
" style="fill: #ffffff"/>
   </g>
   <g id="matplotlib.axis_1">
    <g id="xtick_1">
     <g id="line2d_1">
      <defs>
       <path id="m3425db0610" d="M 0 0 
L 0 3.5 
" style="stroke: #000000; stroke-width: 0.8"/>
      </defs>
      <g>
       <use xlink:href="#m3425db0610" x="52.970078" y="173.52" style="stroke: #000000; stroke-width: 0.8"/>
      </g>
     </g>
     <g id="text_1">
      <!-- 0 -->
      <g transform="translate(49.788828 188.118438) scale(0.1 -0.1)">
       <defs>
        <path id="DejaVuSans-30" d="M 2034 4250 
Q 1547 4250 1301 3770 
Q 1056 3291 1056 2328 
Q 1056 1369 1301 889 
Q 1547 409 2034 409 
Q 2525 409 2770 889 
Q 3016 1369 3016 2328 
Q 3016 3291 2770 3770 
Q 2525 4250 2034 4250 
z
M 2034 4750 
Q 2819 4750 3233 4129 
Q 3647 3509 3647 2328 
Q 3647 1150 3233 529 
Q 2819 -91 2034 -91 
Q 1250 -91 836 529 
Q 422 1150 422 2328 
Q 422 3509 836 4129 
Q 1250 4750 2034 4750 
z
" transform="scale(0.015625)"/>
       </defs>
       <use xlink:href="#DejaVuSans-30"/>
      </g>
     </g>
    </g>
    <g id="xtick_2">
     <g id="line2d_2">
      <g>
       <use xlink:href="#m3425db0610" x="94.380096" y="173.52" style="stroke: #000000; stroke-width: 0.8"/>
      </g>
     </g>
     <g id="text_2">
      <!-- 20 -->
      <g transform="translate(88.017596 188.118438) scale(0.1 -0.1)">
       <defs>
        <path id="DejaVuSans-32" d="M 1228 531 
L 3431 531 
L 3431 0 
L 469 0 
L 469 531 
Q 828 903 1448 1529 
Q 2069 2156 2228 2338 
Q 2531 2678 2651 2914 
Q 2772 3150 2772 3378 
Q 2772 3750 2511 3984 
Q 2250 4219 1831 4219 
Q 1534 4219 1204 4116 
Q 875 4013 500 3803 
L 500 4441 
Q 881 4594 1212 4672 
Q 1544 4750 1819 4750 
Q 2544 4750 2975 4387 
Q 3406 4025 3406 3419 
Q 3406 3131 3298 2873 
Q 3191 2616 2906 2266 
Q 2828 2175 2409 1742 
Q 1991 1309 1228 531 
z
" transform="scale(0.015625)"/>
       </defs>
       <use xlink:href="#DejaVuSans-32"/>
       <use xlink:href="#DejaVuSans-30" x="63.623047"/>
      </g>
     </g>
    </g>
    <g id="xtick_3">
     <g id="line2d_3">
      <g>
       <use xlink:href="#m3425db0610" x="135.790115" y="173.52" style="stroke: #000000; stroke-width: 0.8"/>
      </g>
     </g>
     <g id="text_3">
      <!-- 40 -->
      <g transform="translate(129.427615 188.118438) scale(0.1 -0.1)">
       <defs>
        <path id="DejaVuSans-34" d="M 2419 4116 
L 825 1625 
L 2419 1625 
L 2419 4116 
z
M 2253 4666 
L 3047 4666 
L 3047 1625 
L 3713 1625 
L 3713 1100 
L 3047 1100 
L 3047 0 
L 2419 0 
L 2419 1100 
L 313 1100 
L 313 1709 
L 2253 4666 
z
" transform="scale(0.015625)"/>
       </defs>
       <use xlink:href="#DejaVuSans-34"/>
       <use xlink:href="#DejaVuSans-30" x="63.623047"/>
      </g>
     </g>
    </g>
    <g id="xtick_4">
     <g id="line2d_4">
      <g>
       <use xlink:href="#m3425db0610" x="177.200133" y="173.52" style="stroke: #000000; stroke-width: 0.8"/>
      </g>
     </g>
     <g id="text_4">
      <!-- 60 -->
      <g transform="translate(170.837633 188.118438) scale(0.1 -0.1)">
       <defs>
        <path id="DejaVuSans-36" d="M 2113 2584 
Q 1688 2584 1439 2293 
Q 1191 2003 1191 1497 
Q 1191 994 1439 701 
Q 1688 409 2113 409 
Q 2538 409 2786 701 
Q 3034 994 3034 1497 
Q 3034 2003 2786 2293 
Q 2538 2584 2113 2584 
z
M 3366 4563 
L 3366 3988 
Q 3128 4100 2886 4159 
Q 2644 4219 2406 4219 
Q 1781 4219 1451 3797 
Q 1122 3375 1075 2522 
Q 1259 2794 1537 2939 
Q 1816 3084 2150 3084 
Q 2853 3084 3261 2657 
Q 3669 2231 3669 1497 
Q 3669 778 3244 343 
Q 2819 -91 2113 -91 
Q 1303 -91 875 529 
Q 447 1150 447 2328 
Q 447 3434 972 4092 
Q 1497 4750 2381 4750 
Q 2619 4750 2861 4703 
Q 3103 4656 3366 4563 
z
" transform="scale(0.015625)"/>
       </defs>
       <use xlink:href="#DejaVuSans-36"/>
       <use xlink:href="#DejaVuSans-30" x="63.623047"/>
      </g>
     </g>
    </g>
    <g id="xtick_5">
     <g id="line2d_5">
      <g>
       <use xlink:href="#m3425db0610" x="218.610152" y="173.52" style="stroke: #000000; stroke-width: 0.8"/>
      </g>
     </g>
     <g id="text_5">
      <!-- 80 -->
      <g transform="translate(212.247652 188.118438) scale(0.1 -0.1)">
       <defs>
        <path id="DejaVuSans-38" d="M 2034 2216 
Q 1584 2216 1326 1975 
Q 1069 1734 1069 1313 
Q 1069 891 1326 650 
Q 1584 409 2034 409 
Q 2484 409 2743 651 
Q 3003 894 3003 1313 
Q 3003 1734 2745 1975 
Q 2488 2216 2034 2216 
z
M 1403 2484 
Q 997 2584 770 2862 
Q 544 3141 544 3541 
Q 544 4100 942 4425 
Q 1341 4750 2034 4750 
Q 2731 4750 3128 4425 
Q 3525 4100 3525 3541 
Q 3525 3141 3298 2862 
Q 3072 2584 2669 2484 
Q 3125 2378 3379 2068 
Q 3634 1759 3634 1313 
Q 3634 634 3220 271 
Q 2806 -91 2034 -91 
Q 1263 -91 848 271 
Q 434 634 434 1313 
Q 434 1759 690 2068 
Q 947 2378 1403 2484 
z
M 1172 3481 
Q 1172 3119 1398 2916 
Q 1625 2713 2034 2713 
Q 2441 2713 2670 2916 
Q 2900 3119 2900 3481 
Q 2900 3844 2670 4047 
Q 2441 4250 2034 4250 
Q 1625 4250 1398 4047 
Q 1172 3844 1172 3481 
z
" transform="scale(0.015625)"/>
       </defs>
       <use xlink:href="#DejaVuSans-38"/>
       <use xlink:href="#DejaVuSans-30" x="63.623047"/>
      </g>
     </g>
    </g>
    <g id="xtick_6">
     <g id="line2d_6">
      <g>
       <use xlink:href="#m3425db0610" x="260.02017" y="173.52" style="stroke: #000000; stroke-width: 0.8"/>
      </g>
     </g>
     <g id="text_6">
      <!-- 100 -->
      <g transform="translate(250.47642 188.118438) scale(0.1 -0.1)">
       <defs>
        <path id="DejaVuSans-31" d="M 794 531 
L 1825 531 
L 1825 4091 
L 703 3866 
L 703 4441 
L 1819 4666 
L 2450 4666 
L 2450 531 
L 3481 531 
L 3481 0 
L 794 0 
L 794 531 
z
" transform="scale(0.015625)"/>
       </defs>
       <use xlink:href="#DejaVuSans-31"/>
       <use xlink:href="#DejaVuSans-30" x="63.623047"/>
       <use xlink:href="#DejaVuSans-30" x="127.246094"/>
      </g>
     </g>
    </g>
    <g id="text_7">
     <!-- Sea Ice Thickness [cm] -->
     <g transform="translate(100.950781 201.796563) scale(0.1 -0.1)">
      <defs>
       <path id="DejaVuSans-53" d="M 3425 4513 
L 3425 3897 
Q 3066 4069 2747 4153 
Q 2428 4238 2131 4238 
Q 1616 4238 1336 4038 
Q 1056 3838 1056 3469 
Q 1056 3159 1242 3001 
Q 1428 2844 1947 2747 
L 2328 2669 
Q 3034 2534 3370 2195 
Q 3706 1856 3706 1288 
Q 3706 609 3251 259 
Q 2797 -91 1919 -91 
Q 1588 -91 1214 -16 
Q 841 59 441 206 
L 441 856 
Q 825 641 1194 531 
Q 1563 422 1919 422 
Q 2459 422 2753 634 
Q 3047 847 3047 1241 
Q 3047 1584 2836 1778 
Q 2625 1972 2144 2069 
L 1759 2144 
Q 1053 2284 737 2584 
Q 422 2884 422 3419 
Q 422 4038 858 4394 
Q 1294 4750 2059 4750 
Q 2388 4750 2728 4690 
Q 3069 4631 3425 4513 
z
" transform="scale(0.015625)"/>
       <path id="DejaVuSans-65" d="M 3597 1894 
L 3597 1613 
L 953 1613 
Q 991 1019 1311 708 
Q 1631 397 2203 397 
Q 2534 397 2845 478 
Q 3156 559 3463 722 
L 3463 178 
Q 3153 47 2828 -22 
Q 2503 -91 2169 -91 
Q 1331 -91 842 396 
Q 353 884 353 1716 
Q 353 2575 817 3079 
Q 1281 3584 2069 3584 
Q 2775 3584 3186 3129 
Q 3597 2675 3597 1894 
z
M 3022 2063 
Q 3016 2534 2758 2815 
Q 2500 3097 2075 3097 
Q 1594 3097 1305 2825 
Q 1016 2553 972 2059 
L 3022 2063 
z
" transform="scale(0.015625)"/>
       <path id="DejaVuSans-61" d="M 2194 1759 
Q 1497 1759 1228 1600 
Q 959 1441 959 1056 
Q 959 750 1161 570 
Q 1363 391 1709 391 
Q 2188 391 2477 730 
Q 2766 1069 2766 1631 
L 2766 1759 
L 2194 1759 
z
M 3341 1997 
L 3341 0 
L 2766 0 
L 2766 531 
Q 2569 213 2275 61 
Q 1981 -91 1556 -91 
Q 1019 -91 701 211 
Q 384 513 384 1019 
Q 384 1609 779 1909 
Q 1175 2209 1959 2209 
L 2766 2209 
L 2766 2266 
Q 2766 2663 2505 2880 
Q 2244 3097 1772 3097 
Q 1472 3097 1187 3025 
Q 903 2953 641 2809 
L 641 3341 
Q 956 3463 1253 3523 
Q 1550 3584 1831 3584 
Q 2591 3584 2966 3190 
Q 3341 2797 3341 1997 
z
" transform="scale(0.015625)"/>
       <path id="DejaVuSans-20" transform="scale(0.015625)"/>
       <path id="DejaVuSans-49" d="M 628 4666 
L 1259 4666 
L 1259 0 
L 628 0 
L 628 4666 
z
" transform="scale(0.015625)"/>
       <path id="DejaVuSans-63" d="M 3122 3366 
L 3122 2828 
Q 2878 2963 2633 3030 
Q 2388 3097 2138 3097 
Q 1578 3097 1268 2742 
Q 959 2388 959 1747 
Q 959 1106 1268 751 
Q 1578 397 2138 397 
Q 2388 397 2633 464 
Q 2878 531 3122 666 
L 3122 134 
Q 2881 22 2623 -34 
Q 2366 -91 2075 -91 
Q 1284 -91 818 406 
Q 353 903 353 1747 
Q 353 2603 823 3093 
Q 1294 3584 2113 3584 
Q 2378 3584 2631 3529 
Q 2884 3475 3122 3366 
z
" transform="scale(0.015625)"/>
       <path id="DejaVuSans-54" d="M -19 4666 
L 3928 4666 
L 3928 4134 
L 2272 4134 
L 2272 0 
L 1638 0 
L 1638 4134 
L -19 4134 
L -19 4666 
z
" transform="scale(0.015625)"/>
       <path id="DejaVuSans-68" d="M 3513 2113 
L 3513 0 
L 2938 0 
L 2938 2094 
Q 2938 2591 2744 2837 
Q 2550 3084 2163 3084 
Q 1697 3084 1428 2787 
Q 1159 2491 1159 1978 
L 1159 0 
L 581 0 
L 581 4863 
L 1159 4863 
L 1159 2956 
Q 1366 3272 1645 3428 
Q 1925 3584 2291 3584 
Q 2894 3584 3203 3211 
Q 3513 2838 3513 2113 
z
" transform="scale(0.015625)"/>
       <path id="DejaVuSans-69" d="M 603 3500 
L 1178 3500 
L 1178 0 
L 603 0 
L 603 3500 
z
M 603 4863 
L 1178 4863 
L 1178 4134 
L 603 4134 
L 603 4863 
z
" transform="scale(0.015625)"/>
       <path id="DejaVuSans-6b" d="M 581 4863 
L 1159 4863 
L 1159 1991 
L 2875 3500 
L 3609 3500 
L 1753 1863 
L 3688 0 
L 2938 0 
L 1159 1709 
L 1159 0 
L 581 0 
L 581 4863 
z
" transform="scale(0.015625)"/>
       <path id="DejaVuSans-6e" d="M 3513 2113 
L 3513 0 
L 2938 0 
L 2938 2094 
Q 2938 2591 2744 2837 
Q 2550 3084 2163 3084 
Q 1697 3084 1428 2787 
Q 1159 2491 1159 1978 
L 1159 0 
L 581 0 
L 581 3500 
L 1159 3500 
L 1159 2956 
Q 1366 3272 1645 3428 
Q 1925 3584 2291 3584 
Q 2894 3584 3203 3211 
Q 3513 2838 3513 2113 
z
" transform="scale(0.015625)"/>
       <path id="DejaVuSans-73" d="M 2834 3397 
L 2834 2853 
Q 2591 2978 2328 3040 
Q 2066 3103 1784 3103 
Q 1356 3103 1142 2972 
Q 928 2841 928 2578 
Q 928 2378 1081 2264 
Q 1234 2150 1697 2047 
L 1894 2003 
Q 2506 1872 2764 1633 
Q 3022 1394 3022 966 
Q 3022 478 2636 193 
Q 2250 -91 1575 -91 
Q 1294 -91 989 -36 
Q 684 19 347 128 
L 347 722 
Q 666 556 975 473 
Q 1284 391 1588 391 
Q 1994 391 2212 530 
Q 2431 669 2431 922 
Q 2431 1156 2273 1281 
Q 2116 1406 1581 1522 
L 1381 1569 
Q 847 1681 609 1914 
Q 372 2147 372 2553 
Q 372 3047 722 3315 
Q 1072 3584 1716 3584 
Q 2034 3584 2315 3537 
Q 2597 3491 2834 3397 
z
" transform="scale(0.015625)"/>
       <path id="DejaVuSans-5b" d="M 550 4863 
L 1875 4863 
L 1875 4416 
L 1125 4416 
L 1125 -397 
L 1875 -397 
L 1875 -844 
L 550 -844 
L 550 4863 
z
" transform="scale(0.015625)"/>
       <path id="DejaVuSans-6d" d="M 3328 2828 
Q 3544 3216 3844 3400 
Q 4144 3584 4550 3584 
Q 5097 3584 5394 3201 
Q 5691 2819 5691 2113 
L 5691 0 
L 5113 0 
L 5113 2094 
Q 5113 2597 4934 2840 
Q 4756 3084 4391 3084 
Q 3944 3084 3684 2787 
Q 3425 2491 3425 1978 
L 3425 0 
L 2847 0 
L 2847 2094 
Q 2847 2600 2669 2842 
Q 2491 3084 2119 3084 
Q 1678 3084 1418 2786 
Q 1159 2488 1159 1978 
L 1159 0 
L 581 0 
L 581 3500 
L 1159 3500 
L 1159 2956 
Q 1356 3278 1631 3431 
Q 1906 3584 2284 3584 
Q 2666 3584 2933 3390 
Q 3200 3197 3328 2828 
z
" transform="scale(0.015625)"/>
       <path id="DejaVuSans-5d" d="M 1947 4863 
L 1947 -844 
L 622 -844 
L 622 -397 
L 1369 -397 
L 1369 4416 
L 622 4416 
L 622 4863 
L 1947 4863 
z
" transform="scale(0.015625)"/>
      </defs>
      <use xlink:href="#DejaVuSans-53"/>
      <use xlink:href="#DejaVuSans-65" x="63.476562"/>
      <use xlink:href="#DejaVuSans-61" x="125"/>
      <use xlink:href="#DejaVuSans-20" x="186.279297"/>
      <use xlink:href="#DejaVuSans-49" x="218.066406"/>
      <use xlink:href="#DejaVuSans-63" x="247.558594"/>
      <use xlink:href="#DejaVuSans-65" x="302.539062"/>
      <use xlink:href="#DejaVuSans-20" x="364.0625"/>
      <use xlink:href="#DejaVuSans-54" x="395.849609"/>
      <use xlink:href="#DejaVuSans-68" x="456.933594"/>
      <use xlink:href="#DejaVuSans-69" x="520.3125"/>
      <use xlink:href="#DejaVuSans-63" x="548.095703"/>
      <use xlink:href="#DejaVuSans-6b" x="603.076172"/>
      <use xlink:href="#DejaVuSans-6e" x="660.986328"/>
      <use xlink:href="#DejaVuSans-65" x="724.365234"/>
      <use xlink:href="#DejaVuSans-73" x="785.888672"/>
      <use xlink:href="#DejaVuSans-73" x="837.988281"/>
      <use xlink:href="#DejaVuSans-20" x="890.087891"/>
      <use xlink:href="#DejaVuSans-5b" x="921.875"/>
      <use xlink:href="#DejaVuSans-63" x="960.888672"/>
      <use xlink:href="#DejaVuSans-6d" x="1015.869141"/>
      <use xlink:href="#DejaVuSans-5d" x="1113.28125"/>
     </g>
    </g>
   </g>
   <g id="matplotlib.axis_2">
    <g id="ytick_1">
     <g id="line2d_7">
      <defs>
       <path id="m7fceab7648" d="M 0 0 
L -3.5 0 
" style="stroke: #000000; stroke-width: 0.8"/>
      </defs>
      <g>
       <use xlink:href="#m7fceab7648" x="46.965625" y="164.708943" style="stroke: #000000; stroke-width: 0.8"/>
      </g>
     </g>
     <g id="text_8">
      <!-- 100 -->
      <g transform="translate(20.878125 168.508161) scale(0.1 -0.1)">
       <use xlink:href="#DejaVuSans-31"/>
       <use xlink:href="#DejaVuSans-30" x="63.623047"/>
       <use xlink:href="#DejaVuSans-30" x="127.246094"/>
      </g>
     </g>
    </g>
    <g id="ytick_2">
     <g id="line2d_8">
      <g>
       <use xlink:href="#m7fceab7648" x="46.965625" y="140.311587" style="stroke: #000000; stroke-width: 0.8"/>
      </g>
     </g>
     <g id="text_9">
      <!-- 125 -->
      <g transform="translate(20.878125 144.110806) scale(0.1 -0.1)">
       <defs>
        <path id="DejaVuSans-35" d="M 691 4666 
L 3169 4666 
L 3169 4134 
L 1269 4134 
L 1269 2991 
Q 1406 3038 1543 3061 
Q 1681 3084 1819 3084 
Q 2600 3084 3056 2656 
Q 3513 2228 3513 1497 
Q 3513 744 3044 326 
Q 2575 -91 1722 -91 
Q 1428 -91 1123 -41 
Q 819 9 494 109 
L 494 744 
Q 775 591 1075 516 
Q 1375 441 1709 441 
Q 2250 441 2565 725 
Q 2881 1009 2881 1497 
Q 2881 1984 2565 2268 
Q 2250 2553 1709 2553 
Q 1456 2553 1204 2497 
Q 953 2441 691 2322 
L 691 4666 
z
" transform="scale(0.015625)"/>
       </defs>
       <use xlink:href="#DejaVuSans-31"/>
       <use xlink:href="#DejaVuSans-32" x="63.623047"/>
       <use xlink:href="#DejaVuSans-35" x="127.246094"/>
      </g>
     </g>
    </g>
    <g id="ytick_3">
     <g id="line2d_9">
      <g>
       <use xlink:href="#m7fceab7648" x="46.965625" y="115.914231" style="stroke: #000000; stroke-width: 0.8"/>
      </g>
     </g>
     <g id="text_10">
      <!-- 150 -->
      <g transform="translate(20.878125 119.71345) scale(0.1 -0.1)">
       <use xlink:href="#DejaVuSans-31"/>
       <use xlink:href="#DejaVuSans-35" x="63.623047"/>
       <use xlink:href="#DejaVuSans-30" x="127.246094"/>
      </g>
     </g>
    </g>
    <g id="ytick_4">
     <g id="line2d_10">
      <g>
       <use xlink:href="#m7fceab7648" x="46.965625" y="91.516875" style="stroke: #000000; stroke-width: 0.8"/>
      </g>
     </g>
     <g id="text_11">
      <!-- 175 -->
      <g transform="translate(20.878125 95.316094) scale(0.1 -0.1)">
       <defs>
        <path id="DejaVuSans-37" d="M 525 4666 
L 3525 4666 
L 3525 4397 
L 1831 0 
L 1172 0 
L 2766 4134 
L 525 4134 
L 525 4666 
z
" transform="scale(0.015625)"/>
       </defs>
       <use xlink:href="#DejaVuSans-31"/>
       <use xlink:href="#DejaVuSans-37" x="63.623047"/>
       <use xlink:href="#DejaVuSans-35" x="127.246094"/>
      </g>
     </g>
    </g>
    <g id="ytick_5">
     <g id="line2d_11">
      <g>
       <use xlink:href="#m7fceab7648" x="46.965625" y="67.119519" style="stroke: #000000; stroke-width: 0.8"/>
      </g>
     </g>
     <g id="text_12">
      <!-- 200 -->
      <g transform="translate(20.878125 70.918738) scale(0.1 -0.1)">
       <use xlink:href="#DejaVuSans-32"/>
       <use xlink:href="#DejaVuSans-30" x="63.623047"/>
       <use xlink:href="#DejaVuSans-30" x="127.246094"/>
      </g>
     </g>
    </g>
    <g id="ytick_6">
     <g id="line2d_12">
      <g>
       <use xlink:href="#m7fceab7648" x="46.965625" y="42.722164" style="stroke: #000000; stroke-width: 0.8"/>
      </g>
     </g>
     <g id="text_13">
      <!-- 225 -->
      <g transform="translate(20.878125 46.521382) scale(0.1 -0.1)">
       <use xlink:href="#DejaVuSans-32"/>
       <use xlink:href="#DejaVuSans-32" x="63.623047"/>
       <use xlink:href="#DejaVuSans-35" x="127.246094"/>
      </g>
     </g>
    </g>
    <g id="ytick_7">
     <g id="line2d_13">
      <g>
       <use xlink:href="#m7fceab7648" x="46.965625" y="18.324808" style="stroke: #000000; stroke-width: 0.8"/>
      </g>
     </g>
     <g id="text_14">
      <!-- 250 -->
      <g transform="translate(20.878125 22.124027) scale(0.1 -0.1)">
       <use xlink:href="#DejaVuSans-32"/>
       <use xlink:href="#DejaVuSans-35" x="63.623047"/>
       <use xlink:href="#DejaVuSans-30" x="127.246094"/>
      </g>
     </g>
    </g>
    <g id="text_15">
     <!-- TB [K] -->
     <g transform="translate(14.798437 105.613906) rotate(-90) scale(0.1 -0.1)">
      <defs>
       <path id="DejaVuSans-42" d="M 1259 2228 
L 1259 519 
L 2272 519 
Q 2781 519 3026 730 
Q 3272 941 3272 1375 
Q 3272 1813 3026 2020 
Q 2781 2228 2272 2228 
L 1259 2228 
z
M 1259 4147 
L 1259 2741 
L 2194 2741 
Q 2656 2741 2882 2914 
Q 3109 3088 3109 3444 
Q 3109 3797 2882 3972 
Q 2656 4147 2194 4147 
L 1259 4147 
z
M 628 4666 
L 2241 4666 
Q 2963 4666 3353 4366 
Q 3744 4066 3744 3513 
Q 3744 3084 3544 2831 
Q 3344 2578 2956 2516 
Q 3422 2416 3680 2098 
Q 3938 1781 3938 1306 
Q 3938 681 3513 340 
Q 3088 0 2303 0 
L 628 0 
L 628 4666 
z
" transform="scale(0.015625)"/>
       <path id="DejaVuSans-4b" d="M 628 4666 
L 1259 4666 
L 1259 2694 
L 3353 4666 
L 4166 4666 
L 1850 2491 
L 4331 0 
L 3500 0 
L 1259 2247 
L 1259 0 
L 628 0 
L 628 4666 
z
" transform="scale(0.015625)"/>
      </defs>
      <use xlink:href="#DejaVuSans-54"/>
      <use xlink:href="#DejaVuSans-42" x="61.083984"/>
      <use xlink:href="#DejaVuSans-20" x="129.6875"/>
      <use xlink:href="#DejaVuSans-5b" x="161.474609"/>
      <use xlink:href="#DejaVuSans-4b" x="200.488281"/>
      <use xlink:href="#DejaVuSans-5d" x="266.064453"/>
     </g>
    </g>
   </g>
   <g id="line2d_14">
    <path d="M 57.11108 100.390838 
L 59.18158 94.027269 
L 61.252081 88.152617 
L 63.322582 82.729317 
L 65.393083 77.722693 
L 67.463584 73.100729 
L 69.534085 68.833874 
L 71.604586 64.894843 
L 73.675087 61.258451 
L 75.745588 57.901444 
L 77.816089 54.802357 
L 79.88659 51.941375 
L 81.957091 49.300204 
L 84.027592 46.861956 
L 86.098093 44.611039 
L 88.168593 42.533061 
L 90.239094 40.614736 
L 92.309595 38.843796 
L 94.380096 37.208919 
L 96.450597 35.69965 
L 98.521098 34.306339 
L 100.591599 33.020077 
L 102.6621 31.832639 
L 104.732601 30.736432 
L 106.803102 29.724448 
L 108.873603 28.790215 
L 110.944104 27.927759 
L 113.014605 27.131567 
L 115.085106 26.396546 
L 117.155606 25.717997 
L 119.226107 25.091582 
L 121.296608 24.513294 
L 123.367109 23.979437 
L 125.43761 23.486596 
L 127.508111 23.03162 
L 129.578612 22.6116 
L 131.649113 22.223851 
L 133.719614 21.865893 
L 135.790115 21.535436 
L 137.860616 21.230369 
L 139.931117 20.948741 
L 142.001618 20.68875 
L 144.072119 20.448734 
L 146.142619 20.227159 
L 148.21312 20.022607 
L 150.283621 19.833772 
L 152.354122 19.659444 
L 154.424623 19.498511 
L 156.495124 19.349941 
L 158.565625 19.212787 
L 160.636126 19.08617 
L 162.706627 18.969282 
L 164.777128 18.861373 
L 166.847629 18.761756 
L 168.91813 18.669792 
L 170.988631 18.584894 
L 173.059131 18.506519 
L 175.129632 18.434165 
L 177.200133 18.36737 
L 179.270634 18.305707 
L 181.341135 18.248782 
L 183.411636 18.19623 
L 185.482137 18.147716 
L 187.552638 18.102929 
L 189.623139 18.061583 
L 191.69364 18.023414 
L 193.764141 17.988177 
L 195.834642 17.955648 
L 197.905143 17.925618 
L 199.975644 17.897895 
L 202.046144 17.872302 
L 204.116645 17.848675 
L 206.187146 17.826864 
L 208.257647 17.806728 
L 210.328148 17.78814 
L 212.398649 17.77098 
L 214.46915 17.755138 
L 216.539651 17.740513 
L 218.610152 17.727012 
L 220.680653 17.714548 
L 222.751154 17.703041 
L 224.821655 17.692419 
L 226.892156 17.682613 
L 228.962657 17.67356 
L 231.033157 17.665203 
L 233.103658 17.657488 
L 235.174159 17.650366 
L 237.24466 17.643791 
L 239.315161 17.637721 
L 241.385662 17.632117 
L 243.456163 17.626944 
L 245.526664 17.622168 
L 247.597165 17.61776 
L 249.667666 17.61369 
L 251.738167 17.609932 
L 253.808668 17.606464 
L 255.879169 17.603262 
L 257.94967 17.600306 
L 260.02017 17.597577 
" clip-path="url(#p3f03f3b37b)" style="fill: none; stroke: #1f77b4; stroke-width: 1.5; stroke-linecap: square"/>
   </g>
   <g id="line2d_15">
    <path d="M 57.11108 165.96 
L 59.18158 159.767789 
L 61.252081 153.863254 
L 63.322582 148.23303 
L 65.393083 142.864374 
L 67.463584 137.745132 
L 69.534085 132.863719 
L 71.604586 128.209085 
L 73.675087 123.770694 
L 75.745588 119.538501 
L 77.816089 115.502926 
L 79.88659 111.654834 
L 81.957091 107.985516 
L 84.027592 104.486665 
L 86.098093 101.150363 
L 88.168593 97.969058 
L 90.239094 94.935549 
L 92.309595 92.04297 
L 94.380096 89.284774 
L 96.450597 86.654716 
L 98.521098 84.146846 
L 100.591599 81.755485 
L 102.6621 79.475221 
L 104.732601 77.300893 
L 106.803102 75.227579 
L 108.873603 73.250586 
L 110.944104 71.36544 
L 113.014605 69.567874 
L 115.085106 67.853818 
L 117.155606 66.219394 
L 119.226107 64.660901 
L 121.296608 63.174812 
L 123.367109 61.757763 
L 125.43761 60.406547 
L 127.508111 59.118105 
L 129.578612 57.889522 
L 131.649113 56.718015 
L 133.719614 55.600934 
L 135.790115 54.53575 
L 137.860616 53.520052 
L 139.931117 52.551541 
L 142.001618 51.628025 
L 144.072119 50.747413 
L 146.142619 49.907712 
L 148.21312 49.107022 
L 150.283621 48.34353 
L 152.354122 47.615509 
L 154.424623 46.921309 
L 156.495124 46.25936 
L 158.565625 45.628164 
L 160.636126 45.026292 
L 162.706627 44.452381 
L 164.777128 43.905133 
L 166.847629 43.383309 
L 168.91813 42.885728 
L 170.988631 42.411263 
L 173.059131 41.95884 
L 175.129632 41.527437 
L 177.200133 41.116075 
L 179.270634 40.723824 
L 181.341135 40.349796 
L 183.411636 39.993144 
L 185.482137 39.653062 
L 187.552638 39.328779 
L 189.623139 39.019562 
L 191.69364 38.72471 
L 193.764141 38.443556 
L 195.834642 38.175465 
L 197.905143 37.919828 
L 199.975644 37.676067 
L 202.046144 37.443631 
L 204.116645 37.221993 
L 206.187146 37.010652 
L 208.257647 36.809129 
L 210.328148 36.616969 
L 212.398649 36.433736 
L 214.46915 36.259016 
L 216.539651 36.092413 
L 218.610152 35.933549 
L 220.680653 35.782067 
L 222.751154 35.637621 
L 224.821655 35.499887 
L 226.892156 35.368551 
L 228.962657 35.243316 
L 231.033157 35.1239 
L 233.103658 35.010032 
L 235.174159 34.901454 
L 237.24466 34.797919 
L 239.315161 34.699195 
L 241.385662 34.605058 
L 243.456163 34.515294 
L 245.526664 34.4297 
L 247.597165 34.348082 
L 249.667666 34.270256 
L 251.738167 34.196046 
L 253.808668 34.125284 
L 255.879169 34.057809 
L 257.94967 33.993469 
L 260.02017 33.932117 
" clip-path="url(#p3f03f3b37b)" style="fill: none; stroke: #1f77b4; stroke-width: 1.5; stroke-linecap: square"/>
   </g>
   <g id="line2d_16">
    <path d="M 57.11108 80.823144 
L 59.18158 73.510414 
L 61.252081 67.007145 
L 63.322582 61.223734 
L 65.393083 56.080501 
L 67.463584 51.506581 
L 69.534085 47.438958 
L 71.604586 43.821587 
L 73.675087 40.60463 
L 75.745588 37.743765 
L 77.816089 35.199574 
L 79.88659 32.937004 
L 81.957091 30.924882 
L 84.027592 29.135486 
L 86.098093 27.544162 
L 88.168593 26.128984 
L 90.239094 24.870456 
L 92.309595 23.751236 
L 94.380096 22.755904 
L 96.450597 21.870748 
L 98.521098 21.083571 
L 100.591599 20.383529 
L 102.6621 19.760975 
L 104.732601 19.207334 
L 106.803102 18.714975 
L 108.873603 18.277117 
L 110.944104 17.887727 
L 113.014605 17.541438 
L 115.085106 17.233481 
L 117.155606 16.959613 
L 119.226107 16.716059 
L 121.296608 16.499465 
L 123.367109 16.306846 
L 125.43761 16.135548 
L 127.508111 15.983212 
L 129.578612 15.847738 
L 131.649113 15.72726 
L 133.719614 15.620117 
L 135.790115 15.524835 
L 137.860616 15.4401 
L 139.931117 15.364744 
L 142.001618 15.297729 
L 144.072119 15.238133 
L 146.142619 15.185133 
L 148.21312 15.138 
L 150.283621 15.096084 
L 152.354122 15.058808 
L 154.424623 15.025658 
L 156.495124 14.996177 
L 158.565625 14.96996 
L 160.636126 14.946645 
L 162.706627 14.92591 
L 164.777128 14.907471 
L 166.847629 14.891073 
L 168.91813 14.87649 
L 170.988631 14.863521 
L 173.059131 14.851988 
L 175.129632 14.841731 
L 177.200133 14.83261 
L 179.270634 14.824498 
L 181.341135 14.817284 
L 183.411636 14.810869 
L 185.482137 14.805164 
L 187.552638 14.80009 
L 189.623139 14.795578 
L 191.69364 14.791566 
L 193.764141 14.787997 
L 195.834642 14.784824 
L 197.905143 14.782002 
L 199.975644 14.779492 
L 202.046144 14.77726 
L 204.116645 14.775275 
L 206.187146 14.77351 
L 208.257647 14.77194 
L 210.328148 14.770544 
L 212.398649 14.769303 
L 214.46915 14.768199 
L 216.539651 14.767217 
L 218.610152 14.766344 
L 220.680653 14.765567 
L 222.751154 14.764877 
L 224.821655 14.764262 
L 226.892156 14.763716 
L 228.962657 14.763231 
L 231.033157 14.762799 
L 233.103658 14.762415 
L 235.174159 14.762073 
L 237.24466 14.761769 
L 239.315161 14.761499 
L 241.385662 14.761259 
L 243.456163 14.761045 
L 245.526664 14.760855 
L 247.597165 14.760686 
L 249.667666 14.760536 
L 251.738167 14.760402 
L 253.808668 14.760283 
L 255.879169 14.760178 
L 257.94967 14.760084 
L 260.02017 14.76 
" clip-path="url(#p3f03f3b37b)" style="fill: none; stroke: #ff7f0e; stroke-width: 1.5; stroke-linecap: square"/>
   </g>
   <g id="line2d_17">
    <path d="M 57.11108 154.404208 
L 59.18158 144.541406 
L 61.252081 135.490183 
L 63.322582 127.183758 
L 65.393083 119.560844 
L 67.463584 112.565196 
L 69.534085 106.145199 
L 71.604586 100.253484 
L 73.675087 94.846581 
L 75.745588 89.884595 
L 77.816089 85.330916 
L 79.88659 81.151945 
L 81.957091 77.316849 
L 84.027592 73.797332 
L 86.098093 70.567425 
L 88.168593 67.603297 
L 90.239094 64.883079 
L 92.309595 62.386699 
L 94.380096 60.095738 
L 96.450597 57.993294 
L 98.521098 56.063854 
L 100.591599 54.293181 
L 102.6621 52.668212 
L 104.732601 51.176956 
L 106.803102 49.808411 
L 108.873603 48.55248 
L 110.944104 47.399895 
L 113.014605 46.342154 
L 115.085106 45.37145 
L 117.155606 44.480623 
L 119.226107 43.663099 
L 121.296608 42.912847 
L 123.367109 42.224331 
L 125.43761 41.592471 
L 127.508111 41.012604 
L 129.578612 40.480453 
L 131.649113 39.992091 
L 133.719614 39.543915 
L 135.790115 39.132618 
L 137.860616 38.755166 
L 139.931117 38.408773 
L 142.001618 38.090883 
L 144.072119 37.799152 
L 146.142619 37.531426 
L 148.21312 37.285731 
L 150.283621 37.060253 
L 152.354122 36.853329 
L 154.424623 36.663432 
L 156.495124 36.489161 
L 158.565625 36.329231 
L 160.636126 36.18246 
L 162.706627 36.047767 
L 164.777128 35.924158 
L 166.847629 35.81072 
L 168.91813 35.706616 
L 170.988631 35.611079 
L 173.059131 35.523403 
L 175.129632 35.442942 
L 177.200133 35.369101 
L 179.270634 35.301337 
L 181.341135 35.239149 
L 183.411636 35.182078 
L 185.482137 35.129704 
L 187.552638 35.081639 
L 189.623139 35.037529 
L 191.69364 34.997049 
L 193.764141 34.9599 
L 195.834642 34.925808 
L 197.905143 34.894521 
L 199.975644 34.865808 
L 202.046144 34.839458 
L 204.116645 34.815277 
L 206.187146 34.793085 
L 208.257647 34.77272 
L 210.328148 34.75403 
L 212.398649 34.736878 
L 214.46915 34.721138 
L 216.539651 34.706692 
L 218.610152 34.693436 
L 220.680653 34.68127 
L 222.751154 34.670105 
L 224.821655 34.65986 
L 226.892156 34.650457 
L 228.962657 34.641828 
L 231.033157 34.633909 
L 233.103658 34.626641 
L 235.174159 34.619972 
L 237.24466 34.613851 
L 239.315161 34.608234 
L 241.385662 34.603079 
L 243.456163 34.598349 
L 245.526664 34.594008 
L 247.597165 34.590023 
L 249.667666 34.586367 
L 251.738167 34.583012 
L 253.808668 34.579933 
L 255.879169 34.577107 
L 257.94967 34.574513 
L 260.02017 34.572133 
" clip-path="url(#p3f03f3b37b)" style="fill: none; stroke: #ff7f0e; stroke-width: 1.5; stroke-linecap: square"/>
   </g>
   <g id="line2d_18">
    <path d="M 57.11108 44.461987 
L 59.18158 41.398888 
L 61.252081 38.710294 
L 63.322582 36.350417 
L 65.393083 34.279068 
L 67.463584 32.460969 
L 69.534085 30.865157 
L 71.604586 29.464455 
L 73.675087 28.235008 
L 75.745588 27.155878 
L 77.816089 26.208686 
L 79.88659 25.377301 
L 81.957091 24.647564 
L 84.027592 24.007048 
L 86.098093 23.444843 
L 88.168593 22.951376 
L 90.239094 22.518241 
L 92.309595 22.138064 
L 94.380096 21.804368 
L 96.450597 21.511471 
L 98.521098 21.254384 
L 100.591599 21.02873 
L 102.6621 20.830666 
L 104.732601 20.656817 
L 106.803102 20.504224 
L 108.873603 20.370287 
L 110.944104 20.252726 
L 113.014605 20.149538 
L 115.085106 20.058967 
L 117.155606 19.979469 
L 119.226107 19.909691 
L 121.296608 19.848444 
L 123.367109 19.794685 
L 125.43761 19.747499 
L 127.508111 19.706082 
L 129.578612 19.669729 
L 131.649113 19.637821 
L 133.719614 19.609814 
L 135.790115 19.585231 
L 137.860616 19.563654 
L 139.931117 19.544714 
L 142.001618 19.528091 
L 144.072119 19.5135 
L 146.142619 19.500692 
L 148.21312 19.489451 
L 150.283621 19.479584 
L 152.354122 19.470924 
L 154.424623 19.463322 
L 156.495124 19.45665 
L 158.565625 19.450793 
L 160.636126 19.445653 
L 162.706627 19.441141 
L 164.777128 19.43718 
L 166.847629 19.433704 
L 168.91813 19.430653 
L 170.988631 19.427975 
L 173.059131 19.425625 
L 175.129632 19.423561 
L 177.200133 19.42175 
L 179.270634 19.420161 
L 181.341135 19.418766 
L 183.411636 19.417541 
L 185.482137 19.416466 
L 187.552638 19.415522 
L 189.623139 19.414694 
L 191.69364 19.413967 
L 193.764141 19.413329 
L 195.834642 19.412769 
L 197.905143 19.412278 
L 199.975644 19.411846 
L 202.046144 19.411468 
L 204.116645 19.411135 
L 206.187146 19.410844 
L 208.257647 19.410588 
L 210.328148 19.410363 
L 212.398649 19.410166 
L 214.46915 19.409992 
L 216.539651 19.40984 
L 218.610152 19.409707 
L 220.680653 19.40959 
L 222.751154 19.409487 
L 224.821655 19.409397 
L 226.892156 19.409318 
L 228.962657 19.409248 
L 231.033157 19.409187 
L 233.103658 19.409134 
L 235.174159 19.409087 
L 237.24466 19.409045 
L 239.315161 19.409009 
L 241.385662 19.408977 
L 243.456163 19.408949 
L 245.526664 19.408925 
L 247.597165 19.408903 
L 249.667666 19.408885 
L 251.738167 19.408868 
L 253.808668 19.408853 
L 255.879169 19.408841 
L 257.94967 19.40883 
L 260.02017 19.40882 
" clip-path="url(#p3f03f3b37b)" style="fill: none; stroke: #2ca02c; stroke-width: 1.5; stroke-linecap: square"/>
   </g>
   <g id="line2d_19">
    <path d="M 57.11108 95.687486 
L 59.18158 89.366077 
L 61.252081 83.71038 
L 63.322582 78.650289 
L 65.393083 74.12308 
L 67.463584 70.072634 
L 69.534085 66.448744 
L 71.604586 63.206489 
L 73.675087 60.305678 
L 75.745588 57.710353 
L 77.816089 55.388344 
L 79.88659 53.310867 
L 81.957091 51.452171 
L 84.027592 49.789216 
L 86.098093 48.301387 
L 88.168593 46.970243 
L 90.239094 45.779283 
L 92.309595 44.713744 
L 94.380096 43.760417 
L 96.450597 42.907486 
L 98.521098 42.144378 
L 100.591599 41.461633 
L 102.6621 40.850789 
L 104.732601 40.304273 
L 106.803102 39.815311 
L 108.873603 39.377842 
L 110.944104 38.986443 
L 113.014605 38.636262 
L 115.085106 38.32296 
L 117.155606 38.042651 
L 119.226107 37.791862 
L 121.296608 37.567484 
L 123.367109 37.366735 
L 125.43761 37.187128 
L 127.508111 37.026434 
L 129.578612 36.882664 
L 131.649113 36.754034 
L 133.719614 36.63895 
L 135.790115 36.535986 
L 137.860616 36.443865 
L 139.931117 36.361446 
L 142.001618 36.287706 
L 144.072119 36.221731 
L 146.142619 36.162705 
L 148.21312 36.109894 
L 150.283621 36.062645 
L 152.354122 36.020372 
L 154.424623 35.982551 
L 156.495124 35.948713 
L 158.565625 35.918438 
L 160.636126 35.891351 
L 162.706627 35.867117 
L 164.777128 35.845436 
L 166.847629 35.826037 
L 168.91813 35.808681 
L 170.988631 35.793153 
L 173.059131 35.779261 
L 175.129632 35.766831 
L 177.200133 35.75571 
L 179.270634 35.745761 
L 181.341135 35.736859 
L 183.411636 35.728895 
L 185.482137 35.721769 
L 187.552638 35.715394 
L 189.623139 35.70969 
L 191.69364 35.704587 
L 193.764141 35.700021 
L 195.834642 35.695936 
L 197.905143 35.692282 
L 199.975644 35.689012 
L 202.046144 35.686086 
L 204.116645 35.683469 
L 206.187146 35.681127 
L 208.257647 35.679032 
L 210.328148 35.677158 
L 212.398649 35.675481 
L 214.46915 35.67398 
L 216.539651 35.672638 
L 218.610152 35.671437 
L 220.680653 35.670362 
L 222.751154 35.6694 
L 224.821655 35.66854 
L 226.892156 35.667771 
L 228.962657 35.667082 
L 231.033157 35.666466 
L 233.103658 35.665915 
L 235.174159 35.665422 
L 237.24466 35.664981 
L 239.315161 35.664586 
L 241.385662 35.664233 
L 243.456163 35.663917 
L 245.526664 35.663634 
L 247.597165 35.663381 
L 249.667666 35.663155 
L 251.738167 35.662952 
L 253.808668 35.662771 
L 255.879169 35.662609 
L 257.94967 35.662464 
L 260.02017 35.662335 
" clip-path="url(#p3f03f3b37b)" style="fill: none; stroke: #2ca02c; stroke-width: 1.5; stroke-linecap: square"/>
   </g>
   <g id="patch_3">
    <path d="M 46.965625 173.52 
L 46.965625 7.2 
" style="fill: none; stroke: #000000; stroke-width: 0.8; stroke-linejoin: miter; stroke-linecap: square"/>
   </g>
   <g id="patch_4">
    <path d="M 270.165625 173.52 
L 270.165625 7.2 
" style="fill: none; stroke: #000000; stroke-width: 0.8; stroke-linejoin: miter; stroke-linecap: square"/>
   </g>
   <g id="patch_5">
    <path d="M 46.965625 173.52 
L 270.165625 173.52 
" style="fill: none; stroke: #000000; stroke-width: 0.8; stroke-linejoin: miter; stroke-linecap: square"/>
   </g>
   <g id="patch_6">
    <path d="M 46.965625 7.2 
L 270.165625 7.2 
" style="fill: none; stroke: #000000; stroke-width: 0.8; stroke-linejoin: miter; stroke-linecap: square"/>
   </g>
   <g id="legend_1">
    <g id="patch_7">
     <path d="M 202.5625 168.52 
L 263.165625 168.52 
Q 265.165625 168.52 265.165625 166.52 
L 265.165625 79.45125 
Q 265.165625 77.45125 263.165625 77.45125 
L 202.5625 77.45125 
Q 200.5625 77.45125 200.5625 79.45125 
L 200.5625 166.52 
Q 200.5625 168.52 202.5625 168.52 
z
" style="fill: #ffffff; opacity: 0.8; stroke: #cccccc; stroke-linejoin: miter"/>
    </g>
    <g id="line2d_20">
     <path d="M 204.5625 85.549688 
L 214.5625 85.549688 
L 224.5625 85.549688 
" style="fill: none; stroke: #1f77b4; stroke-width: 1.5; stroke-linecap: square"/>
    </g>
    <g id="text_16">
     <!-- 1.4v -->
     <g transform="translate(232.5625 89.049688) scale(0.1 -0.1)">
      <defs>
       <path id="DejaVuSans-2e" d="M 684 794 
L 1344 794 
L 1344 0 
L 684 0 
L 684 794 
z
" transform="scale(0.015625)"/>
       <path id="DejaVuSans-76" d="M 191 3500 
L 800 3500 
L 1894 563 
L 2988 3500 
L 3597 3500 
L 2284 0 
L 1503 0 
L 191 3500 
z
" transform="scale(0.015625)"/>
      </defs>
      <use xlink:href="#DejaVuSans-31"/>
      <use xlink:href="#DejaVuSans-2e" x="63.623047"/>
      <use xlink:href="#DejaVuSans-34" x="95.410156"/>
      <use xlink:href="#DejaVuSans-76" x="159.033203"/>
     </g>
    </g>
    <g id="line2d_21">
     <path d="M 204.5625 100.227813 
L 214.5625 100.227813 
L 224.5625 100.227813 
" style="fill: none; stroke: #1f77b4; stroke-width: 1.5; stroke-linecap: square"/>
    </g>
    <g id="text_17">
     <!-- 1.4h -->
     <g transform="translate(232.5625 103.727813) scale(0.1 -0.1)">
      <use xlink:href="#DejaVuSans-31"/>
      <use xlink:href="#DejaVuSans-2e" x="63.623047"/>
      <use xlink:href="#DejaVuSans-34" x="95.410156"/>
      <use xlink:href="#DejaVuSans-68" x="159.033203"/>
     </g>
    </g>
    <g id="line2d_22">
     <path d="M 204.5625 114.905938 
L 214.5625 114.905938 
L 224.5625 114.905938 
" style="fill: none; stroke: #ff7f0e; stroke-width: 1.5; stroke-linecap: square"/>
    </g>
    <g id="text_18">
     <!-- 10.7v -->
     <g transform="translate(232.5625 118.405938) scale(0.1 -0.1)">
      <use xlink:href="#DejaVuSans-31"/>
      <use xlink:href="#DejaVuSans-30" x="63.623047"/>
      <use xlink:href="#DejaVuSans-2e" x="127.246094"/>
      <use xlink:href="#DejaVuSans-37" x="159.033203"/>
      <use xlink:href="#DejaVuSans-76" x="222.65625"/>
     </g>
    </g>
    <g id="line2d_23">
     <path d="M 204.5625 129.584063 
L 214.5625 129.584063 
L 224.5625 129.584063 
" style="fill: none; stroke: #ff7f0e; stroke-width: 1.5; stroke-linecap: square"/>
    </g>
    <g id="text_19">
     <!-- 10.7h -->
     <g transform="translate(232.5625 133.084063) scale(0.1 -0.1)">
      <use xlink:href="#DejaVuSans-31"/>
      <use xlink:href="#DejaVuSans-30" x="63.623047"/>
      <use xlink:href="#DejaVuSans-2e" x="127.246094"/>
      <use xlink:href="#DejaVuSans-37" x="159.033203"/>
      <use xlink:href="#DejaVuSans-68" x="222.65625"/>
     </g>
    </g>
    <g id="line2d_24">
     <path d="M 204.5625 144.262188 
L 214.5625 144.262188 
L 224.5625 144.262188 
" style="fill: none; stroke: #2ca02c; stroke-width: 1.5; stroke-linecap: square"/>
    </g>
    <g id="text_20">
     <!-- 36.5v -->
     <g transform="translate(232.5625 147.762188) scale(0.1 -0.1)">
      <defs>
       <path id="DejaVuSans-33" d="M 2597 2516 
Q 3050 2419 3304 2112 
Q 3559 1806 3559 1356 
Q 3559 666 3084 287 
Q 2609 -91 1734 -91 
Q 1441 -91 1130 -33 
Q 819 25 488 141 
L 488 750 
Q 750 597 1062 519 
Q 1375 441 1716 441 
Q 2309 441 2620 675 
Q 2931 909 2931 1356 
Q 2931 1769 2642 2001 
Q 2353 2234 1838 2234 
L 1294 2234 
L 1294 2753 
L 1863 2753 
Q 2328 2753 2575 2939 
Q 2822 3125 2822 3475 
Q 2822 3834 2567 4026 
Q 2313 4219 1838 4219 
Q 1578 4219 1281 4162 
Q 984 4106 628 3988 
L 628 4550 
Q 988 4650 1302 4700 
Q 1616 4750 1894 4750 
Q 2613 4750 3031 4423 
Q 3450 4097 3450 3541 
Q 3450 3153 3228 2886 
Q 3006 2619 2597 2516 
z
" transform="scale(0.015625)"/>
      </defs>
      <use xlink:href="#DejaVuSans-33"/>
      <use xlink:href="#DejaVuSans-36" x="63.623047"/>
      <use xlink:href="#DejaVuSans-2e" x="127.246094"/>
      <use xlink:href="#DejaVuSans-35" x="159.033203"/>
      <use xlink:href="#DejaVuSans-76" x="222.65625"/>
     </g>
    </g>
    <g id="line2d_25">
     <path d="M 204.5625 158.940313 
L 214.5625 158.940313 
L 224.5625 158.940313 
" style="fill: none; stroke: #2ca02c; stroke-width: 1.5; stroke-linecap: square"/>
    </g>
    <g id="text_21">
     <!-- 36.5h -->
     <g transform="translate(232.5625 162.440313) scale(0.1 -0.1)">
      <use xlink:href="#DejaVuSans-33"/>
      <use xlink:href="#DejaVuSans-36" x="63.623047"/>
      <use xlink:href="#DejaVuSans-2e" x="127.246094"/>
      <use xlink:href="#DejaVuSans-35" x="159.033203"/>
      <use xlink:href="#DejaVuSans-68" x="222.65625"/>
     </g>
    </g>
   </g>
  </g>
 </g>
 <defs>
  <clipPath id="p3f03f3b37b">
   <rect x="46.965625" y="7.2" width="223.2" height="166.32"/>
  </clipPath>
 </defs>
</svg>
