<?xml version="1.0" encoding="utf-8" standalone="no"?>
<!DOCTYPE svg PUBLIC "-//W3C//DTD SVG 1.1//EN"
  "http://www.w3.org/Graphics/SVG/1.1/DTD/svg11.dtd">
<svg xmlns:xlink="http://www.w3.org/1999/xlink" width="277.365625pt" height="211.07625pt" viewBox="0 0 277.365625 211.07625" xmlns="http://www.w3.org/2000/svg" version="1.1">
 <metadata>
  <rdf:RDF xmlns:dc="http://purl.org/dc/elements/1.1/" xmlns:cc="http://creativecommons.org/ns#" xmlns:rdf="http://www.w3.org/1999/02/22-rdf-syntax-ns#">
   <cc:Work>
    <dc:type rdf:resource="http://purl.org/dc/dcmitype/StillImage"/>
    <dc:date>2023-01-25T22:57:21.843291</dc:date>
    <dc:format>image/svg+xml</dc:format>
    <dc:creator>
     <cc:Agent>
      <dc:title>Matplotlib v3.6.2, https://matplotlib.org/</dc:title>
     </cc:Agent>
    </dc:creator>
   </cc:Work>
  </rdf:RDF>
 </metadata>
 <defs>
  <style type="text/css">*{stroke-linejoin: round; stroke-linecap: butt}</style>
 </defs>
 <g id="figure_1">
  <g id="patch_1">
   <path d="M 0 211.07625 
L 277.365625 211.07625 
L 277.365625 0 
L 0 0 
z
" style="fill: #ffffff"/>
  </g>
  <g id="axes_1">
   <g id="patch_2">
    <path d="M 46.965625 173.52 
L 270.165625 173.52 
L 270.165625 7.2 
L 46.965625 7.2 
z
" style="fill: #ffffff"/>
   </g>
   <g id="matplotlib.axis_1">
    <g id="xtick_1">
     <g id="line2d_1">
      <defs>
       <path id="m7b5f6cca77" d="M 0 0 
L 0 3.5 
" style="stroke: #000000; stroke-width: 0.8"/>
      </defs>
      <g>
       <use xlink:href="#m7b5f6cca77" x="52.970078" y="173.52" style="stroke: #000000; stroke-width: 0.8"/>
      </g>
     </g>
     <g id="text_1">
      <!-- 0 -->
      <g transform="translate(49.788828 188.118438) scale(0.1 -0.1)">
       <defs>
        <path id="DejaVuSans-30" d="M 2034 4250 
Q 1547 4250 1301 3770 
Q 1056 3291 1056 2328 
Q 1056 1369 1301 889 
Q 1547 409 2034 409 
Q 2525 409 2770 889 
Q 3016 1369 3016 2328 
Q 3016 3291 2770 3770 
Q 2525 4250 2034 4250 
z
M 2034 4750 
Q 2819 4750 3233 4129 
Q 3647 3509 3647 2328 
Q 3647 1150 3233 529 
Q 2819 -91 2034 -91 
Q 1250 -91 836 529 
Q 422 1150 422 2328 
Q 422 3509 836 4129 
Q 1250 4750 2034 4750 
z
" transform="scale(0.015625)"/>
       </defs>
       <use xlink:href="#DejaVuSans-30"/>
      </g>
     </g>
    </g>
    <g id="xtick_2">
     <g id="line2d_2">
      <g>
       <use xlink:href="#m7b5f6cca77" x="94.380096" y="173.52" style="stroke: #000000; stroke-width: 0.8"/>
      </g>
     </g>
     <g id="text_2">
      <!-- 20 -->
      <g transform="translate(88.017596 188.118438) scale(0.1 -0.1)">
       <defs>
        <path id="DejaVuSans-32" d="M 1228 531 
L 3431 531 
L 3431 0 
L 469 0 
L 469 531 
Q 828 903 1448 1529 
Q 2069 2156 2228 2338 
Q 2531 2678 2651 2914 
Q 2772 3150 2772 3378 
Q 2772 3750 2511 3984 
Q 2250 4219 1831 4219 
Q 1534 4219 1204 4116 
Q 875 4013 500 3803 
L 500 4441 
Q 881 4594 1212 4672 
Q 1544 4750 1819 4750 
Q 2544 4750 2975 4387 
Q 3406 4025 3406 3419 
Q 3406 3131 3298 2873 
Q 3191 2616 2906 2266 
Q 2828 2175 2409 1742 
Q 1991 1309 1228 531 
z
" transform="scale(0.015625)"/>
       </defs>
       <use xlink:href="#DejaVuSans-32"/>
       <use xlink:href="#DejaVuSans-30" x="63.623047"/>
      </g>
     </g>
    </g>
    <g id="xtick_3">
     <g id="line2d_3">
      <g>
       <use xlink:href="#m7b5f6cca77" x="135.790115" y="173.52" style="stroke: #000000; stroke-width: 0.8"/>
      </g>
     </g>
     <g id="text_3">
      <!-- 40 -->
      <g transform="translate(129.427615 188.118438) scale(0.1 -0.1)">
       <defs>
        <path id="DejaVuSans-34" d="M 2419 4116 
L 825 1625 
L 2419 1625 
L 2419 4116 
z
M 2253 4666 
L 3047 4666 
L 3047 1625 
L 3713 1625 
L 3713 1100 
L 3047 1100 
L 3047 0 
L 2419 0 
L 2419 1100 
L 313 1100 
L 313 1709 
L 2253 4666 
z
" transform="scale(0.015625)"/>
       </defs>
       <use xlink:href="#DejaVuSans-34"/>
       <use xlink:href="#DejaVuSans-30" x="63.623047"/>
      </g>
     </g>
    </g>
    <g id="xtick_4">
     <g id="line2d_4">
      <g>
       <use xlink:href="#m7b5f6cca77" x="177.200133" y="173.52" style="stroke: #000000; stroke-width: 0.8"/>
      </g>
     </g>
     <g id="text_4">
      <!-- 60 -->
      <g transform="translate(170.837633 188.118438) scale(0.1 -0.1)">
       <defs>
        <path id="DejaVuSans-36" d="M 2113 2584 
Q 1688 2584 1439 2293 
Q 1191 2003 1191 1497 
Q 1191 994 1439 701 
Q 1688 409 2113 409 
Q 2538 409 2786 701 
Q 3034 994 3034 1497 
Q 3034 2003 2786 2293 
Q 2538 2584 2113 2584 
z
M 3366 4563 
L 3366 3988 
Q 3128 4100 2886 4159 
Q 2644 4219 2406 4219 
Q 1781 4219 1451 3797 
Q 1122 3375 1075 2522 
Q 1259 2794 1537 2939 
Q 1816 3084 2150 3084 
Q 2853 3084 3261 2657 
Q 3669 2231 3669 1497 
Q 3669 778 3244 343 
Q 2819 -91 2113 -91 
Q 1303 -91 875 529 
Q 447 1150 447 2328 
Q 447 3434 972 4092 
Q 1497 4750 2381 4750 
Q 2619 4750 2861 4703 
Q 3103 4656 3366 4563 
z
" transform="scale(0.015625)"/>
       </defs>
       <use xlink:href="#DejaVuSans-36"/>
       <use xlink:href="#DejaVuSans-30" x="63.623047"/>
      </g>
     </g>
    </g>
    <g id="xtick_5">
     <g id="line2d_5">
      <g>
       <use xlink:href="#m7b5f6cca77" x="218.610152" y="173.52" style="stroke: #000000; stroke-width: 0.8"/>
      </g>
     </g>
     <g id="text_5">
      <!-- 80 -->
      <g transform="translate(212.247652 188.118438) scale(0.1 -0.1)">
       <defs>
        <path id="DejaVuSans-38" d="M 2034 2216 
Q 1584 2216 1326 1975 
Q 1069 1734 1069 1313 
Q 1069 891 1326 650 
Q 1584 409 2034 409 
Q 2484 409 2743 651 
Q 3003 894 3003 1313 
Q 3003 1734 2745 1975 
Q 2488 2216 2034 2216 
z
M 1403 2484 
Q 997 2584 770 2862 
Q 544 3141 544 3541 
Q 544 4100 942 4425 
Q 1341 4750 2034 4750 
Q 2731 4750 3128 4425 
Q 3525 4100 3525 3541 
Q 3525 3141 3298 2862 
Q 3072 2584 2669 2484 
Q 3125 2378 3379 2068 
Q 3634 1759 3634 1313 
Q 3634 634 3220 271 
Q 2806 -91 2034 -91 
Q 1263 -91 848 271 
Q 434 634 434 1313 
Q 434 1759 690 2068 
Q 947 2378 1403 2484 
z
M 1172 3481 
Q 1172 3119 1398 2916 
Q 1625 2713 2034 2713 
Q 2441 2713 2670 2916 
Q 2900 3119 2900 3481 
Q 2900 3844 2670 4047 
Q 2441 4250 2034 4250 
Q 1625 4250 1398 4047 
Q 1172 3844 1172 3481 
z
" transform="scale(0.015625)"/>
       </defs>
       <use xlink:href="#DejaVuSans-38"/>
       <use xlink:href="#DejaVuSans-30" x="63.623047"/>
      </g>
     </g>
    </g>
    <g id="xtick_6">
     <g id="line2d_6">
      <g>
       <use xlink:href="#m7b5f6cca77" x="260.02017" y="173.52" style="stroke: #000000; stroke-width: 0.8"/>
      </g>
     </g>
     <g id="text_6">
      <!-- 100 -->
      <g transform="translate(250.47642 188.118438) scale(0.1 -0.1)">
       <defs>
        <path id="DejaVuSans-31" d="M 794 531 
L 1825 531 
L 1825 4091 
L 703 3866 
L 703 4441 
L 1819 4666 
L 2450 4666 
L 2450 531 
L 3481 531 
L 3481 0 
L 794 0 
L 794 531 
z
" transform="scale(0.015625)"/>
       </defs>
       <use xlink:href="#DejaVuSans-31"/>
       <use xlink:href="#DejaVuSans-30" x="63.623047"/>
       <use xlink:href="#DejaVuSans-30" x="127.246094"/>
      </g>
     </g>
    </g>
    <g id="text_7">
     <!-- Sea Ice Thickness [cm] -->
     <g transform="translate(100.950781 201.796563) scale(0.1 -0.1)">
      <defs>
       <path id="DejaVuSans-53" d="M 3425 4513 
L 3425 3897 
Q 3066 4069 2747 4153 
Q 2428 4238 2131 4238 
Q 1616 4238 1336 4038 
Q 1056 3838 1056 3469 
Q 1056 3159 1242 3001 
Q 1428 2844 1947 2747 
L 2328 2669 
Q 3034 2534 3370 2195 
Q 3706 1856 3706 1288 
Q 3706 609 3251 259 
Q 2797 -91 1919 -91 
Q 1588 -91 1214 -16 
Q 841 59 441 206 
L 441 856 
Q 825 641 1194 531 
Q 1563 422 1919 422 
Q 2459 422 2753 634 
Q 3047 847 3047 1241 
Q 3047 1584 2836 1778 
Q 2625 1972 2144 2069 
L 1759 2144 
Q 1053 2284 737 2584 
Q 422 2884 422 3419 
Q 422 4038 858 4394 
Q 1294 4750 2059 4750 
Q 2388 4750 2728 4690 
Q 3069 4631 3425 4513 
z
" transform="scale(0.015625)"/>
       <path id="DejaVuSans-65" d="M 3597 1894 
L 3597 1613 
L 953 1613 
Q 991 1019 1311 708 
Q 1631 397 2203 397 
Q 2534 397 2845 478 
Q 3156 559 3463 722 
L 3463 178 
Q 3153 47 2828 -22 
Q 2503 -91 2169 -91 
Q 1331 -91 842 396 
Q 353 884 353 1716 
Q 353 2575 817 3079 
Q 1281 3584 2069 3584 
Q 2775 3584 3186 3129 
Q 3597 2675 3597 1894 
z
M 3022 2063 
Q 3016 2534 2758 2815 
Q 2500 3097 2075 3097 
Q 1594 3097 1305 2825 
Q 1016 2553 972 2059 
L 3022 2063 
z
" transform="scale(0.015625)"/>
       <path id="DejaVuSans-61" d="M 2194 1759 
Q 1497 1759 1228 1600 
Q 959 1441 959 1056 
Q 959 750 1161 570 
Q 1363 391 1709 391 
Q 2188 391 2477 730 
Q 2766 1069 2766 1631 
L 2766 1759 
L 2194 1759 
z
M 3341 1997 
L 3341 0 
L 2766 0 
L 2766 531 
Q 2569 213 2275 61 
Q 1981 -91 1556 -91 
Q 1019 -91 701 211 
Q 384 513 384 1019 
Q 384 1609 779 1909 
Q 1175 2209 1959 2209 
L 2766 2209 
L 2766 2266 
Q 2766 2663 2505 2880 
Q 2244 3097 1772 3097 
Q 1472 3097 1187 3025 
Q 903 2953 641 2809 
L 641 3341 
Q 956 3463 1253 3523 
Q 1550 3584 1831 3584 
Q 2591 3584 2966 3190 
Q 3341 2797 3341 1997 
z
" transform="scale(0.015625)"/>
       <path id="DejaVuSans-20" transform="scale(0.015625)"/>
       <path id="DejaVuSans-49" d="M 628 4666 
L 1259 4666 
L 1259 0 
L 628 0 
L 628 4666 
z
" transform="scale(0.015625)"/>
       <path id="DejaVuSans-63" d="M 3122 3366 
L 3122 2828 
Q 2878 2963 2633 3030 
Q 2388 3097 2138 3097 
Q 1578 3097 1268 2742 
Q 959 2388 959 1747 
Q 959 1106 1268 751 
Q 1578 397 2138 397 
Q 2388 397 2633 464 
Q 2878 531 3122 666 
L 3122 134 
Q 2881 22 2623 -34 
Q 2366 -91 2075 -91 
Q 1284 -91 818 406 
Q 353 903 353 1747 
Q 353 2603 823 3093 
Q 1294 3584 2113 3584 
Q 2378 3584 2631 3529 
Q 2884 3475 3122 3366 
z
" transform="scale(0.015625)"/>
       <path id="DejaVuSans-54" d="M -19 4666 
L 3928 4666 
L 3928 4134 
L 2272 4134 
L 2272 0 
L 1638 0 
L 1638 4134 
L -19 4134 
L -19 4666 
z
" transform="scale(0.015625)"/>
       <path id="DejaVuSans-68" d="M 3513 2113 
L 3513 0 
L 2938 0 
L 2938 2094 
Q 2938 2591 2744 2837 
Q 2550 3084 2163 3084 
Q 1697 3084 1428 2787 
Q 1159 2491 1159 1978 
L 1159 0 
L 581 0 
L 581 4863 
L 1159 4863 
L 1159 2956 
Q 1366 3272 1645 3428 
Q 1925 3584 2291 3584 
Q 2894 3584 3203 3211 
Q 3513 2838 3513 2113 
z
" transform="scale(0.015625)"/>
       <path id="DejaVuSans-69" d="M 603 3500 
L 1178 3500 
L 1178 0 
L 603 0 
L 603 3500 
z
M 603 4863 
L 1178 4863 
L 1178 4134 
L 603 4134 
L 603 4863 
z
" transform="scale(0.015625)"/>
       <path id="DejaVuSans-6b" d="M 581 4863 
L 1159 4863 
L 1159 1991 
L 2875 3500 
L 3609 3500 
L 1753 1863 
L 3688 0 
L 2938 0 
L 1159 1709 
L 1159 0 
L 581 0 
L 581 4863 
z
" transform="scale(0.015625)"/>
       <path id="DejaVuSans-6e" d="M 3513 2113 
L 3513 0 
L 2938 0 
L 2938 2094 
Q 2938 2591 2744 2837 
Q 2550 3084 2163 3084 
Q 1697 3084 1428 2787 
Q 1159 2491 1159 1978 
L 1159 0 
L 581 0 
L 581 3500 
L 1159 3500 
L 1159 2956 
Q 1366 3272 1645 3428 
Q 1925 3584 2291 3584 
Q 2894 3584 3203 3211 
Q 3513 2838 3513 2113 
z
" transform="scale(0.015625)"/>
       <path id="DejaVuSans-73" d="M 2834 3397 
L 2834 2853 
Q 2591 2978 2328 3040 
Q 2066 3103 1784 3103 
Q 1356 3103 1142 2972 
Q 928 2841 928 2578 
Q 928 2378 1081 2264 
Q 1234 2150 1697 2047 
L 1894 2003 
Q 2506 1872 2764 1633 
Q 3022 1394 3022 966 
Q 3022 478 2636 193 
Q 2250 -91 1575 -91 
Q 1294 -91 989 -36 
Q 684 19 347 128 
L 347 722 
Q 666 556 975 473 
Q 1284 391 1588 391 
Q 1994 391 2212 530 
Q 2431 669 2431 922 
Q 2431 1156 2273 1281 
Q 2116 1406 1581 1522 
L 1381 1569 
Q 847 1681 609 1914 
Q 372 2147 372 2553 
Q 372 3047 722 3315 
Q 1072 3584 1716 3584 
Q 2034 3584 2315 3537 
Q 2597 3491 2834 3397 
z
" transform="scale(0.015625)"/>
       <path id="DejaVuSans-5b" d="M 550 4863 
L 1875 4863 
L 1875 4416 
L 1125 4416 
L 1125 -397 
L 1875 -397 
L 1875 -844 
L 550 -844 
L 550 4863 
z
" transform="scale(0.015625)"/>
       <path id="DejaVuSans-6d" d="M 3328 2828 
Q 3544 3216 3844 3400 
Q 4144 3584 4550 3584 
Q 5097 3584 5394 3201 
Q 5691 2819 5691 2113 
L 5691 0 
L 5113 0 
L 5113 2094 
Q 5113 2597 4934 2840 
Q 4756 3084 4391 3084 
Q 3944 3084 3684 2787 
Q 3425 2491 3425 1978 
L 3425 0 
L 2847 0 
L 2847 2094 
Q 2847 2600 2669 2842 
Q 2491 3084 2119 3084 
Q 1678 3084 1418 2786 
Q 1159 2488 1159 1978 
L 1159 0 
L 581 0 
L 581 3500 
L 1159 3500 
L 1159 2956 
Q 1356 3278 1631 3431 
Q 1906 3584 2284 3584 
Q 2666 3584 2933 3390 
Q 3200 3197 3328 2828 
z
" transform="scale(0.015625)"/>
       <path id="DejaVuSans-5d" d="M 1947 4863 
L 1947 -844 
L 622 -844 
L 622 -397 
L 1369 -397 
L 1369 4416 
L 622 4416 
L 622 4863 
L 1947 4863 
z
" transform="scale(0.015625)"/>
      </defs>
      <use xlink:href="#DejaVuSans-53"/>
      <use xlink:href="#DejaVuSans-65" x="63.476562"/>
      <use xlink:href="#DejaVuSans-61" x="125"/>
      <use xlink:href="#DejaVuSans-20" x="186.279297"/>
      <use xlink:href="#DejaVuSans-49" x="218.066406"/>
      <use xlink:href="#DejaVuSans-63" x="247.558594"/>
      <use xlink:href="#DejaVuSans-65" x="302.539062"/>
      <use xlink:href="#DejaVuSans-20" x="364.0625"/>
      <use xlink:href="#DejaVuSans-54" x="395.849609"/>
      <use xlink:href="#DejaVuSans-68" x="456.933594"/>
      <use xlink:href="#DejaVuSans-69" x="520.3125"/>
      <use xlink:href="#DejaVuSans-63" x="548.095703"/>
      <use xlink:href="#DejaVuSans-6b" x="603.076172"/>
      <use xlink:href="#DejaVuSans-6e" x="660.986328"/>
      <use xlink:href="#DejaVuSans-65" x="724.365234"/>
      <use xlink:href="#DejaVuSans-73" x="785.888672"/>
      <use xlink:href="#DejaVuSans-73" x="837.988281"/>
      <use xlink:href="#DejaVuSans-20" x="890.087891"/>
      <use xlink:href="#DejaVuSans-5b" x="921.875"/>
      <use xlink:href="#DejaVuSans-63" x="960.888672"/>
      <use xlink:href="#DejaVuSans-6d" x="1015.869141"/>
      <use xlink:href="#DejaVuSans-5d" x="1113.28125"/>
     </g>
    </g>
   </g>
   <g id="matplotlib.axis_2">
    <g id="ytick_1">
     <g id="line2d_7">
      <defs>
       <path id="mfd48175703" d="M 0 0 
L -3.5 0 
" style="stroke: #000000; stroke-width: 0.8"/>
      </defs>
      <g>
       <use xlink:href="#mfd48175703" x="46.965625" y="164.002922" style="stroke: #000000; stroke-width: 0.8"/>
      </g>
     </g>
     <g id="text_8">
      <!-- 100 -->
      <g transform="translate(20.878125 167.80214) scale(0.1 -0.1)">
       <use xlink:href="#DejaVuSans-31"/>
       <use xlink:href="#DejaVuSans-30" x="63.623047"/>
       <use xlink:href="#DejaVuSans-30" x="127.246094"/>
      </g>
     </g>
    </g>
    <g id="ytick_2">
     <g id="line2d_8">
      <g>
       <use xlink:href="#mfd48175703" x="46.965625" y="139.720439" style="stroke: #000000; stroke-width: 0.8"/>
      </g>
     </g>
     <g id="text_9">
      <!-- 125 -->
      <g transform="translate(20.878125 143.519657) scale(0.1 -0.1)">
       <defs>
        <path id="DejaVuSans-35" d="M 691 4666 
L 3169 4666 
L 3169 4134 
L 1269 4134 
L 1269 2991 
Q 1406 3038 1543 3061 
Q 1681 3084 1819 3084 
Q 2600 3084 3056 2656 
Q 3513 2228 3513 1497 
Q 3513 744 3044 326 
Q 2575 -91 1722 -91 
Q 1428 -91 1123 -41 
Q 819 9 494 109 
L 494 744 
Q 775 591 1075 516 
Q 1375 441 1709 441 
Q 2250 441 2565 725 
Q 2881 1009 2881 1497 
Q 2881 1984 2565 2268 
Q 2250 2553 1709 2553 
Q 1456 2553 1204 2497 
Q 953 2441 691 2322 
L 691 4666 
z
" transform="scale(0.015625)"/>
       </defs>
       <use xlink:href="#DejaVuSans-31"/>
       <use xlink:href="#DejaVuSans-32" x="63.623047"/>
       <use xlink:href="#DejaVuSans-35" x="127.246094"/>
      </g>
     </g>
    </g>
    <g id="ytick_3">
     <g id="line2d_9">
      <g>
       <use xlink:href="#mfd48175703" x="46.965625" y="115.437955" style="stroke: #000000; stroke-width: 0.8"/>
      </g>
     </g>
     <g id="text_10">
      <!-- 150 -->
      <g transform="translate(20.878125 119.237174) scale(0.1 -0.1)">
       <use xlink:href="#DejaVuSans-31"/>
       <use xlink:href="#DejaVuSans-35" x="63.623047"/>
       <use xlink:href="#DejaVuSans-30" x="127.246094"/>
      </g>
     </g>
    </g>
    <g id="ytick_4">
     <g id="line2d_10">
      <g>
       <use xlink:href="#mfd48175703" x="46.965625" y="91.155472" style="stroke: #000000; stroke-width: 0.8"/>
      </g>
     </g>
     <g id="text_11">
      <!-- 175 -->
      <g transform="translate(20.878125 94.954691) scale(0.1 -0.1)">
       <defs>
        <path id="DejaVuSans-37" d="M 525 4666 
L 3525 4666 
L 3525 4397 
L 1831 0 
L 1172 0 
L 2766 4134 
L 525 4134 
L 525 4666 
z
" transform="scale(0.015625)"/>
       </defs>
       <use xlink:href="#DejaVuSans-31"/>
       <use xlink:href="#DejaVuSans-37" x="63.623047"/>
       <use xlink:href="#DejaVuSans-35" x="127.246094"/>
      </g>
     </g>
    </g>
    <g id="ytick_5">
     <g id="line2d_11">
      <g>
       <use xlink:href="#mfd48175703" x="46.965625" y="66.872989" style="stroke: #000000; stroke-width: 0.8"/>
      </g>
     </g>
     <g id="text_12">
      <!-- 200 -->
      <g transform="translate(20.878125 70.672208) scale(0.1 -0.1)">
       <use xlink:href="#DejaVuSans-32"/>
       <use xlink:href="#DejaVuSans-30" x="63.623047"/>
       <use xlink:href="#DejaVuSans-30" x="127.246094"/>
      </g>
     </g>
    </g>
    <g id="ytick_6">
     <g id="line2d_12">
      <g>
       <use xlink:href="#mfd48175703" x="46.965625" y="42.590506" style="stroke: #000000; stroke-width: 0.8"/>
      </g>
     </g>
     <g id="text_13">
      <!-- 225 -->
      <g transform="translate(20.878125 46.389725) scale(0.1 -0.1)">
       <use xlink:href="#DejaVuSans-32"/>
       <use xlink:href="#DejaVuSans-32" x="63.623047"/>
       <use xlink:href="#DejaVuSans-35" x="127.246094"/>
      </g>
     </g>
    </g>
    <g id="ytick_7">
     <g id="line2d_13">
      <g>
       <use xlink:href="#mfd48175703" x="46.965625" y="18.308023" style="stroke: #000000; stroke-width: 0.8"/>
      </g>
     </g>
     <g id="text_14">
      <!-- 250 -->
      <g transform="translate(20.878125 22.107242) scale(0.1 -0.1)">
       <use xlink:href="#DejaVuSans-32"/>
       <use xlink:href="#DejaVuSans-35" x="63.623047"/>
       <use xlink:href="#DejaVuSans-30" x="127.246094"/>
      </g>
     </g>
    </g>
    <g id="text_15">
     <!-- TB [K] -->
     <g transform="translate(14.798437 105.613906) rotate(-90) scale(0.1 -0.1)">
      <defs>
       <path id="DejaVuSans-42" d="M 1259 2228 
L 1259 519 
L 2272 519 
Q 2781 519 3026 730 
Q 3272 941 3272 1375 
Q 3272 1813 3026 2020 
Q 2781 2228 2272 2228 
L 1259 2228 
z
M 1259 4147 
L 1259 2741 
L 2194 2741 
Q 2656 2741 2882 2914 
Q 3109 3088 3109 3444 
Q 3109 3797 2882 3972 
Q 2656 4147 2194 4147 
L 1259 4147 
z
M 628 4666 
L 2241 4666 
Q 2963 4666 3353 4366 
Q 3744 4066 3744 3513 
Q 3744 3084 3544 2831 
Q 3344 2578 2956 2516 
Q 3422 2416 3680 2098 
Q 3938 1781 3938 1306 
Q 3938 681 3513 340 
Q 3088 0 2303 0 
L 628 0 
L 628 4666 
z
" transform="scale(0.015625)"/>
       <path id="DejaVuSans-4b" d="M 628 4666 
L 1259 4666 
L 1259 2694 
L 3353 4666 
L 4166 4666 
L 1850 2491 
L 4331 0 
L 3500 0 
L 1259 2247 
L 1259 0 
L 628 0 
L 628 4666 
z
" transform="scale(0.015625)"/>
      </defs>
      <use xlink:href="#DejaVuSans-54"/>
      <use xlink:href="#DejaVuSans-42" x="61.083984"/>
      <use xlink:href="#DejaVuSans-20" x="129.6875"/>
      <use xlink:href="#DejaVuSans-5b" x="161.474609"/>
      <use xlink:href="#DejaVuSans-4b" x="200.488281"/>
      <use xlink:href="#DejaVuSans-5d" x="266.064453"/>
     </g>
    </g>
   </g>
   <g id="line2d_14">
    <path d="M 57.11108 95.31227 
L 59.18158 88.067328 
L 61.252081 81.497311 
L 63.322582 75.539344 
L 65.393083 70.136409 
L 67.463584 65.236801 
L 69.534085 60.793631 
L 71.604586 56.764377 
L 73.675087 53.110481 
L 75.745588 49.796975 
L 77.816089 46.792149 
L 79.88659 44.067246 
L 81.957091 41.59619 
L 84.027592 39.355332 
L 86.098093 37.323229 
L 88.168593 35.480432 
L 90.239094 33.809307 
L 92.309595 32.29386 
L 94.380096 30.919589 
L 96.450597 29.673343 
L 98.521098 28.543194 
L 100.591599 27.518328 
L 102.6621 26.588937 
L 104.732601 25.746125 
L 106.803102 24.981829 
L 108.873603 24.288732 
L 110.944104 23.660204 
L 113.014605 23.090227 
L 115.085106 22.573349 
L 117.155606 22.104622 
L 119.226107 21.67956 
L 121.296608 21.294097 
L 123.367109 20.944543 
L 125.43761 20.627552 
L 127.508111 20.340091 
L 129.578612 20.07941 
L 131.649113 19.843014 
L 133.719614 19.628639 
L 135.790115 19.434236 
L 137.860616 19.257942 
L 139.931117 19.098072 
L 142.001618 18.953095 
L 144.072119 18.821623 
L 146.142619 18.7024 
L 148.21312 18.594283 
L 150.283621 18.496238 
L 152.354122 18.407326 
L 154.424623 18.326698 
L 156.495124 18.25358 
L 158.565625 18.187274 
L 160.636126 18.127145 
L 162.706627 18.072618 
L 164.777128 18.02317 
L 166.847629 17.978329 
L 168.91813 17.937665 
L 170.988631 17.900789 
L 173.059131 17.867348 
L 175.129632 17.837023 
L 177.200133 17.809523 
L 179.270634 17.784584 
L 181.341135 17.761969 
L 183.411636 17.741461 
L 185.482137 17.722863 
L 187.552638 17.705998 
L 189.623139 17.690703 
L 191.69364 17.676834 
L 193.764141 17.664257 
L 195.834642 17.652851 
L 197.905143 17.642508 
L 199.975644 17.633128 
L 202.046144 17.624622 
L 204.116645 17.616909 
L 206.187146 17.609914 
L 208.257647 17.603571 
L 210.328148 17.597819 
L 212.398649 17.592602 
L 214.46915 17.587872 
L 216.539651 17.583582 
L 218.610152 17.579692 
L 220.680653 17.576164 
L 222.751154 17.572965 
L 224.821655 17.570064 
L 226.892156 17.567433 
L 228.962657 17.565047 
L 231.033157 17.562883 
L 233.103658 17.560922 
L 235.174159 17.559142 
L 237.24466 17.557529 
L 239.315161 17.556066 
L 241.385662 17.554739 
L 243.456163 17.553536 
L 245.526664 17.552445 
L 247.597165 17.551455 
L 249.667666 17.550558 
L 251.738167 17.549744 
L 253.808668 17.549006 
L 255.879169 17.548337 
L 257.94967 17.54773 
L 260.02017 17.54718 
" clip-path="url(#pba1f13753d)" style="fill: none; stroke: #1f77b4; stroke-width: 1.5; stroke-linecap: square"/>
   </g>
   <g id="line2d_15">
    <path d="M 57.11108 165.96 
L 59.18158 158.86463 
L 61.252081 152.146644 
L 63.322582 145.78597 
L 65.393083 139.763604 
L 67.463584 134.061552 
L 69.534085 128.662777 
L 71.604586 123.551148 
L 73.675087 118.711394 
L 75.745588 114.129053 
L 77.816089 109.790435 
L 79.88659 105.682577 
L 81.957091 101.793205 
L 84.027592 98.110698 
L 86.098093 94.624055 
L 88.168593 91.322856 
L 90.239094 88.19724 
L 92.309595 85.237867 
L 94.380096 82.435896 
L 96.450597 79.782954 
L 98.521098 77.271115 
L 100.591599 74.892874 
L 102.6621 72.641125 
L 104.732601 70.509141 
L 106.803102 68.490552 
L 108.873603 66.579326 
L 110.944104 64.769753 
L 113.014605 63.056427 
L 115.085106 61.434228 
L 117.155606 59.898309 
L 119.226107 58.444082 
L 121.296608 57.067202 
L 123.367109 55.763554 
L 125.43761 54.529244 
L 127.508111 53.360583 
L 129.578612 52.254081 
L 131.649113 51.20643 
L 133.719614 50.214501 
L 135.790115 49.275331 
L 137.860616 48.386112 
L 139.931117 47.544188 
L 142.001618 46.747045 
L 144.072119 45.992299 
L 146.142619 45.277696 
L 148.21312 44.601101 
L 150.283621 43.960492 
L 152.354122 43.353956 
L 154.424623 42.77968 
L 156.495124 42.235948 
L 158.565625 41.721135 
L 160.636126 41.233704 
L 162.706627 40.772199 
L 164.777128 40.335239 
L 166.847629 39.921521 
L 168.91813 39.529807 
L 170.988631 39.158927 
L 173.059131 38.807773 
L 175.129632 38.475296 
L 177.200133 38.160503 
L 179.270634 37.862453 
L 181.341135 37.580255 
L 183.411636 37.313067 
L 185.482137 37.06009 
L 187.552638 36.820568 
L 189.623139 36.593785 
L 191.69364 36.379065 
L 193.764141 36.175764 
L 195.834642 35.983277 
L 197.905143 35.801028 
L 199.975644 35.628472 
L 202.046144 35.465094 
L 204.116645 35.310406 
L 206.187146 35.163945 
L 208.257647 35.025274 
L 210.328148 34.893978 
L 212.398649 34.769666 
L 214.46915 34.651965 
L 216.539651 34.540525 
L 218.610152 34.435012 
L 220.680653 34.335111 
L 222.751154 34.240523 
L 224.821655 34.150967 
L 226.892156 34.066173 
L 228.962657 33.98589 
L 231.033157 33.909876 
L 233.103658 33.837906 
L 235.174159 33.769763 
L 237.24466 33.705245 
L 239.315161 33.644158 
L 241.385662 33.586321 
L 243.456163 33.531559 
L 245.526664 33.47971 
L 247.597165 33.430619 
L 249.667666 33.384139 
L 251.738167 33.340131 
L 253.808668 33.298464 
L 255.879169 33.259013 
L 257.94967 33.22166 
L 260.02017 33.186294 
" clip-path="url(#pba1f13753d)" style="fill: none; stroke: #1f77b4; stroke-width: 1.5; stroke-linecap: square"/>
   </g>
   <g id="line2d_16">
    <path d="M 57.11108 80.512092 
L 59.18158 73.233793 
L 61.252081 66.761144 
L 63.322582 61.004964 
L 65.393083 55.885947 
L 67.463584 51.333563 
L 69.534085 47.285092 
L 71.604586 43.684753 
L 73.675087 40.482943 
L 75.745588 37.635548 
L 77.816089 35.103336 
L 79.88659 32.851419 
L 81.957091 30.848771 
L 84.027592 29.067801 
L 86.098093 27.483969 
L 88.168593 26.075455 
L 90.239094 24.822851 
L 92.309595 23.708901 
L 94.380096 22.718256 
L 96.450597 21.837268 
L 98.521098 21.053798 
L 100.591599 20.357051 
L 102.6621 19.737429 
L 104.732601 19.186394 
L 106.803102 18.696354 
L 108.873603 18.260557 
L 110.944104 17.873 
L 113.014605 17.528342 
L 115.085106 17.221835 
L 117.155606 16.949256 
L 119.226107 16.706849 
L 121.296608 16.491275 
L 123.367109 16.299562 
L 125.43761 16.129071 
L 127.508111 15.977452 
L 129.578612 15.842616 
L 131.649113 15.722705 
L 133.719614 15.616068 
L 135.790115 15.521234 
L 137.860616 15.436897 
L 139.931117 15.361896 
L 142.001618 15.295197 
L 144.072119 15.235881 
L 146.142619 15.183131 
L 148.21312 15.13622 
L 150.283621 15.094502 
L 152.354122 15.057401 
L 154.424623 15.024407 
L 156.495124 14.995065 
L 158.565625 14.968972 
L 160.636126 14.945766 
L 162.706627 14.925129 
L 164.777128 14.906777 
L 166.847629 14.890456 
L 168.91813 14.875941 
L 170.988631 14.863034 
L 173.059131 14.851555 
L 175.129632 14.841346 
L 177.200133 14.832268 
L 179.270634 14.824195 
L 181.341135 14.817015 
L 183.411636 14.81063 
L 185.482137 14.804951 
L 187.552638 14.799902 
L 189.623139 14.795411 
L 191.69364 14.791417 
L 193.764141 14.787866 
L 195.834642 14.784707 
L 197.905143 14.781898 
L 199.975644 14.7794 
L 202.046144 14.777179 
L 204.116645 14.775203 
L 206.187146 14.773446 
L 208.257647 14.771884 
L 210.328148 14.770495 
L 212.398649 14.769259 
L 214.46915 14.76816 
L 216.539651 14.767183 
L 218.610152 14.766314 
L 220.680653 14.765541 
L 222.751154 14.764854 
L 224.821655 14.764242 
L 226.892156 14.763699 
L 228.962657 14.763215 
L 231.033157 14.762785 
L 233.103658 14.762403 
L 235.174159 14.762063 
L 237.24466 14.761761 
L 239.315161 14.761492 
L 241.385662 14.761253 
L 243.456163 14.76104 
L 245.526664 14.760851 
L 247.597165 14.760683 
L 249.667666 14.760533 
L 251.738167 14.7604 
L 253.808668 14.760282 
L 255.879169 14.760177 
L 257.94967 14.760083 
L 260.02017 14.76 
" clip-path="url(#pba1f13753d)" style="fill: none; stroke: #ff7f0e; stroke-width: 1.5; stroke-linecap: square"/>
   </g>
   <g id="line2d_17">
    <path d="M 57.11108 153.746706 
L 59.18158 143.930342 
L 61.252081 134.921736 
L 63.322582 126.654421 
L 65.393083 119.067399 
L 67.463584 112.104689 
L 69.534085 105.71492 
L 71.604586 99.850946 
L 73.675087 94.4695 
L 75.745588 89.530878 
L 77.816089 84.998639 
L 79.88659 80.839345 
L 81.957091 77.022306 
L 84.027592 73.51936 
L 86.098093 70.304661 
L 88.168593 67.35449 
L 90.239094 64.647079 
L 92.309595 62.162453 
L 94.380096 59.882279 
L 96.450597 57.789734 
L 98.521098 55.869378 
L 100.591599 54.107042 
L 102.6621 52.489724 
L 104.732601 51.00549 
L 106.803102 49.643389 
L 108.873603 48.393371 
L 110.944104 47.246213 
L 113.014605 46.193452 
L 115.085106 45.227319 
L 117.155606 44.340686 
L 119.226107 43.527012 
L 121.296608 42.780292 
L 123.367109 42.095018 
L 125.43761 41.466132 
L 127.508111 40.888996 
L 129.578612 40.359351 
L 131.649113 39.873288 
L 133.719614 39.427223 
L 135.790115 39.017862 
L 137.860616 38.642187 
L 139.931117 38.297424 
L 142.001618 37.981032 
L 144.072119 37.690674 
L 146.142619 37.424209 
L 148.21312 37.17967 
L 150.283621 36.955254 
L 152.354122 36.749304 
L 154.424623 36.560302 
L 156.495124 36.386852 
L 158.565625 36.227674 
L 160.636126 36.081595 
L 162.706627 35.947536 
L 164.777128 35.824508 
L 166.847629 35.711604 
L 168.91813 35.607991 
L 170.988631 35.512903 
L 173.059131 35.42564 
L 175.129632 35.345558 
L 177.200133 35.272065 
L 179.270634 35.20462 
L 181.341135 35.142725 
L 183.411636 35.085923 
L 185.482137 35.033795 
L 187.552638 34.985956 
L 189.623139 34.942054 
L 191.69364 34.901765 
L 193.764141 34.86479 
L 195.834642 34.830859 
L 197.905143 34.799719 
L 199.975644 34.771142 
L 202.046144 34.744916 
L 204.116645 34.720849 
L 206.187146 34.698761 
L 208.257647 34.678492 
L 210.328148 34.65989 
L 212.398649 34.642819 
L 214.46915 34.627152 
L 216.539651 34.612775 
L 218.610152 34.599581 
L 220.680653 34.587473 
L 222.751154 34.576361 
L 224.821655 34.566163 
L 226.892156 34.556804 
L 228.962657 34.548216 
L 231.033157 34.540334 
L 233.103658 34.533101 
L 235.174159 34.526463 
L 237.24466 34.520371 
L 239.315161 34.514781 
L 241.385662 34.50965 
L 243.456163 34.504942 
L 245.526664 34.500621 
L 247.597165 34.496656 
L 249.667666 34.493017 
L 251.738167 34.489677 
L 253.808668 34.486612 
L 255.879169 34.4838 
L 257.94967 34.481218 
L 260.02017 34.47885 
" clip-path="url(#pba1f13753d)" style="fill: none; stroke: #ff7f0e; stroke-width: 1.5; stroke-linecap: square"/>
   </g>
   <g id="line2d_18">
    <path d="M 57.11108 44.322138 
L 59.18158 41.273461 
L 61.252081 38.597526 
L 63.322582 36.248761 
L 65.393083 34.187164 
L 67.463584 32.377625 
L 69.534085 30.789327 
L 71.604586 29.395221 
L 73.675087 28.171562 
L 75.745588 27.097513 
L 77.816089 26.154781 
L 79.88659 25.327311 
L 81.957091 24.60101 
L 84.027592 23.963509 
L 86.098093 23.403951 
L 88.168593 22.912807 
L 90.239094 22.481712 
L 92.309595 22.103325 
L 94.380096 21.7712 
L 96.450597 21.479682 
L 98.521098 21.223806 
L 100.591599 20.999215 
L 102.6621 20.802082 
L 104.732601 20.629052 
L 106.803102 20.477178 
L 108.873603 20.343872 
L 110.944104 20.226864 
L 113.014605 20.124162 
L 115.085106 20.034017 
L 117.155606 19.954893 
L 119.226107 19.885444 
L 121.296608 19.824485 
L 123.367109 19.77098 
L 125.43761 19.724016 
L 127.508111 19.682794 
L 129.578612 19.646612 
L 131.649113 19.614854 
L 133.719614 19.586979 
L 135.790115 19.562512 
L 137.860616 19.541036 
L 139.931117 19.522186 
L 142.001618 19.505641 
L 144.072119 19.491118 
L 146.142619 19.478371 
L 148.21312 19.467183 
L 150.283621 19.457363 
L 152.354122 19.448743 
L 154.424623 19.441177 
L 156.495124 19.434536 
L 158.565625 19.428707 
L 160.636126 19.423591 
L 162.706627 19.4191 
L 164.777128 19.415158 
L 166.847629 19.411699 
L 168.91813 19.408662 
L 170.988631 19.405996 
L 173.059131 19.403657 
L 175.129632 19.401603 
L 177.200133 19.399801 
L 179.270634 19.398219 
L 181.341135 19.39683 
L 183.411636 19.395611 
L 185.482137 19.394541 
L 187.552638 19.393602 
L 189.623139 19.392778 
L 191.69364 19.392055 
L 193.764141 19.39142 
L 195.834642 19.390862 
L 197.905143 19.390373 
L 199.975644 19.389944 
L 202.046144 19.389567 
L 204.116645 19.389236 
L 206.187146 19.388946 
L 208.257647 19.388691 
L 210.328148 19.388467 
L 212.398649 19.388271 
L 214.46915 19.388098 
L 216.539651 19.387947 
L 218.610152 19.387814 
L 220.680653 19.387698 
L 222.751154 19.387595 
L 224.821655 19.387506 
L 226.892156 19.387427 
L 228.962657 19.387358 
L 231.033157 19.387297 
L 233.103658 19.387244 
L 235.174159 19.387197 
L 237.24466 19.387156 
L 239.315161 19.38712 
L 241.385662 19.387088 
L 243.456163 19.38706 
L 245.526664 19.387036 
L 247.597165 19.387015 
L 249.667666 19.386996 
L 251.738167 19.386979 
L 253.808668 19.386965 
L 255.879169 19.386952 
L 257.94967 19.386941 
L 260.02017 19.386931 
" clip-path="url(#pba1f13753d)" style="fill: none; stroke: #2ca02c; stroke-width: 1.5; stroke-linecap: square"/>
   </g>
   <g id="line2d_19">
    <path d="M 57.11108 95.306446 
L 59.18158 89.014801 
L 61.252081 83.385733 
L 63.322582 78.349467 
L 65.393083 73.843574 
L 67.463584 69.8122 
L 69.534085 66.205373 
L 71.604586 62.978383 
L 73.675087 60.09123 
L 75.745588 57.508125 
L 77.816089 55.197049 
L 79.88659 53.129354 
L 81.957091 51.279409 
L 84.027592 49.624284 
L 86.098093 48.143461 
L 88.168593 46.818584 
L 90.239094 45.633232 
L 92.309595 44.572709 
L 94.380096 43.623871 
L 96.450597 42.774956 
L 98.521098 42.015441 
L 100.591599 41.335911 
L 102.6621 40.727942 
L 104.732601 40.184 
L 106.803102 39.69734 
L 108.873603 39.261931 
L 110.944104 38.872375 
L 113.014605 38.523843 
L 115.085106 38.212016 
L 117.155606 37.933027 
L 119.226107 37.683419 
L 121.296608 37.460097 
L 123.367109 37.260294 
L 125.43761 37.081531 
L 127.508111 36.921595 
L 129.578612 36.778501 
L 131.649113 36.650477 
L 133.719614 36.535935 
L 135.790115 36.433456 
L 137.860616 36.341769 
L 139.931117 36.259737 
L 142.001618 36.186344 
L 144.072119 36.120681 
L 146.142619 36.061932 
L 148.21312 36.00937 
L 150.283621 35.962344 
L 152.354122 35.92027 
L 154.424623 35.882627 
L 156.495124 35.848948 
L 158.565625 35.818815 
L 160.636126 35.791856 
L 162.706627 35.767736 
L 164.777128 35.746157 
L 166.847629 35.726849 
L 168.91813 35.709575 
L 170.988631 35.694121 
L 173.059131 35.680293 
L 175.129632 35.667922 
L 177.200133 35.656854 
L 179.270634 35.646951 
L 181.341135 35.638091 
L 183.411636 35.630165 
L 185.482137 35.623073 
L 187.552638 35.616727 
L 189.623139 35.61105 
L 191.69364 35.605971 
L 193.764141 35.601427 
L 195.834642 35.597362 
L 197.905143 35.593724 
L 199.975644 35.59047 
L 202.046144 35.587558 
L 204.116645 35.584953 
L 206.187146 35.582622 
L 208.257647 35.580537 
L 210.328148 35.578671 
L 212.398649 35.577002 
L 214.46915 35.575508 
L 216.539651 35.574172 
L 218.610152 35.572977 
L 220.680653 35.571907 
L 222.751154 35.57095 
L 224.821655 35.570094 
L 226.892156 35.569328 
L 228.962657 35.568643 
L 231.033157 35.56803 
L 233.103658 35.567481 
L 235.174159 35.566991 
L 237.24466 35.566551 
L 239.315161 35.566159 
L 241.385662 35.565807 
L 243.456163 35.565493 
L 245.526664 35.565211 
L 247.597165 35.564959 
L 249.667666 35.564734 
L 251.738167 35.564533 
L 253.808668 35.564352 
L 255.879169 35.564191 
L 257.94967 35.564047 
L 260.02017 35.563918 
" clip-path="url(#pba1f13753d)" style="fill: none; stroke: #2ca02c; stroke-width: 1.5; stroke-linecap: square"/>
   </g>
   <g id="patch_3">
    <path d="M 46.965625 173.52 
L 46.965625 7.2 
" style="fill: none; stroke: #000000; stroke-width: 0.8; stroke-linejoin: miter; stroke-linecap: square"/>
   </g>
   <g id="patch_4">
    <path d="M 270.165625 173.52 
L 270.165625 7.2 
" style="fill: none; stroke: #000000; stroke-width: 0.8; stroke-linejoin: miter; stroke-linecap: square"/>
   </g>
   <g id="patch_5">
    <path d="M 46.965625 173.52 
L 270.165625 173.52 
" style="fill: none; stroke: #000000; stroke-width: 0.8; stroke-linejoin: miter; stroke-linecap: square"/>
   </g>
   <g id="patch_6">
    <path d="M 46.965625 7.2 
L 270.165625 7.2 
" style="fill: none; stroke: #000000; stroke-width: 0.8; stroke-linejoin: miter; stroke-linecap: square"/>
   </g>
   <g id="legend_1">
    <g id="patch_7">
     <path d="M 202.5625 168.52 
L 263.165625 168.52 
Q 265.165625 168.52 265.165625 166.52 
L 265.165625 79.45125 
Q 265.165625 77.45125 263.165625 77.45125 
L 202.5625 77.45125 
Q 200.5625 77.45125 200.5625 79.45125 
L 200.5625 166.52 
Q 200.5625 168.52 202.5625 168.52 
z
" style="fill: #ffffff; opacity: 0.8; stroke: #cccccc; stroke-linejoin: miter"/>
    </g>
    <g id="line2d_20">
     <path d="M 204.5625 85.549688 
L 214.5625 85.549688 
L 224.5625 85.549688 
" style="fill: none; stroke: #1f77b4; stroke-width: 1.5; stroke-linecap: square"/>
    </g>
    <g id="text_16">
     <!-- 1.4v -->
     <g transform="translate(232.5625 89.049688) scale(0.1 -0.1)">
      <defs>
       <path id="DejaVuSans-2e" d="M 684 794 
L 1344 794 
L 1344 0 
L 684 0 
L 684 794 
z
" transform="scale(0.015625)"/>
       <path id="DejaVuSans-76" d="M 191 3500 
L 800 3500 
L 1894 563 
L 2988 3500 
L 3597 3500 
L 2284 0 
L 1503 0 
L 191 3500 
z
" transform="scale(0.015625)"/>
      </defs>
      <use xlink:href="#DejaVuSans-31"/>
      <use xlink:href="#DejaVuSans-2e" x="63.623047"/>
      <use xlink:href="#DejaVuSans-34" x="95.410156"/>
      <use xlink:href="#DejaVuSans-76" x="159.033203"/>
     </g>
    </g>
    <g id="line2d_21">
     <path d="M 204.5625 100.227813 
L 214.5625 100.227813 
L 224.5625 100.227813 
" style="fill: none; stroke: #1f77b4; stroke-width: 1.5; stroke-linecap: square"/>
    </g>
    <g id="text_17">
     <!-- 1.4h -->
     <g transform="translate(232.5625 103.727813) scale(0.1 -0.1)">
      <use xlink:href="#DejaVuSans-31"/>
      <use xlink:href="#DejaVuSans-2e" x="63.623047"/>
      <use xlink:href="#DejaVuSans-34" x="95.410156"/>
      <use xlink:href="#DejaVuSans-68" x="159.033203"/>
     </g>
    </g>
    <g id="line2d_22">
     <path d="M 204.5625 114.905938 
L 214.5625 114.905938 
L 224.5625 114.905938 
" style="fill: none; stroke: #ff7f0e; stroke-width: 1.5; stroke-linecap: square"/>
    </g>
    <g id="text_18">
     <!-- 10.7v -->
     <g transform="translate(232.5625 118.405938) scale(0.1 -0.1)">
      <use xlink:href="#DejaVuSans-31"/>
      <use xlink:href="#DejaVuSans-30" x="63.623047"/>
      <use xlink:href="#DejaVuSans-2e" x="127.246094"/>
      <use xlink:href="#DejaVuSans-37" x="159.033203"/>
      <use xlink:href="#DejaVuSans-76" x="222.65625"/>
     </g>
    </g>
    <g id="line2d_23">
     <path d="M 204.5625 129.584063 
L 214.5625 129.584063 
L 224.5625 129.584063 
" style="fill: none; stroke: #ff7f0e; stroke-width: 1.5; stroke-linecap: square"/>
    </g>
    <g id="text_19">
     <!-- 10.7h -->
     <g transform="translate(232.5625 133.084063) scale(0.1 -0.1)">
      <use xlink:href="#DejaVuSans-31"/>
      <use xlink:href="#DejaVuSans-30" x="63.623047"/>
      <use xlink:href="#DejaVuSans-2e" x="127.246094"/>
      <use xlink:href="#DejaVuSans-37" x="159.033203"/>
      <use xlink:href="#DejaVuSans-68" x="222.65625"/>
     </g>
    </g>
    <g id="line2d_24">
     <path d="M 204.5625 144.262188 
L 214.5625 144.262188 
L 224.5625 144.262188 
" style="fill: none; stroke: #2ca02c; stroke-width: 1.5; stroke-linecap: square"/>
    </g>
    <g id="text_20">
     <!-- 36.5v -->
     <g transform="translate(232.5625 147.762188) scale(0.1 -0.1)">
      <defs>
       <path id="DejaVuSans-33" d="M 2597 2516 
Q 3050 2419 3304 2112 
Q 3559 1806 3559 1356 
Q 3559 666 3084 287 
Q 2609 -91 1734 -91 
Q 1441 -91 1130 -33 
Q 819 25 488 141 
L 488 750 
Q 750 597 1062 519 
Q 1375 441 1716 441 
Q 2309 441 2620 675 
Q 2931 909 2931 1356 
Q 2931 1769 2642 2001 
Q 2353 2234 1838 2234 
L 1294 2234 
L 1294 2753 
L 1863 2753 
Q 2328 2753 2575 2939 
Q 2822 3125 2822 3475 
Q 2822 3834 2567 4026 
Q 2313 4219 1838 4219 
Q 1578 4219 1281 4162 
Q 984 4106 628 3988 
L 628 4550 
Q 988 4650 1302 4700 
Q 1616 4750 1894 4750 
Q 2613 4750 3031 4423 
Q 3450 4097 3450 3541 
Q 3450 3153 3228 2886 
Q 3006 2619 2597 2516 
z
" transform="scale(0.015625)"/>
      </defs>
      <use xlink:href="#DejaVuSans-33"/>
      <use xlink:href="#DejaVuSans-36" x="63.623047"/>
      <use xlink:href="#DejaVuSans-2e" x="127.246094"/>
      <use xlink:href="#DejaVuSans-35" x="159.033203"/>
      <use xlink:href="#DejaVuSans-76" x="222.65625"/>
     </g>
    </g>
    <g id="line2d_25">
     <path d="M 204.5625 158.940313 
L 214.5625 158.940313 
L 224.5625 158.940313 
" style="fill: none; stroke: #2ca02c; stroke-width: 1.5; stroke-linecap: square"/>
    </g>
    <g id="text_21">
     <!-- 36.5h -->
     <g transform="translate(232.5625 162.440313) scale(0.1 -0.1)">
      <use xlink:href="#DejaVuSans-33"/>
      <use xlink:href="#DejaVuSans-36" x="63.623047"/>
      <use xlink:href="#DejaVuSans-2e" x="127.246094"/>
      <use xlink:href="#DejaVuSans-35" x="159.033203"/>
      <use xlink:href="#DejaVuSans-68" x="222.65625"/>
     </g>
    </g>
   </g>
  </g>
 </g>
 <defs>
  <clipPath id="pba1f13753d">
   <rect x="46.965625" y="7.2" width="223.2" height="166.32"/>
  </clipPath>
 </defs>
</svg>
